<svg width="508" height="285" viewBox="0 0 508 285" fill="none" xmlns="http://www.w3.org/2000/svg">
<g filter="url(#filter0_d)">
<rect x="20" y="14.0355" width="467.381" height="244.964" rx="8" fill="white"/>
</g>
<path d="M47.9891 54.4137V44.9247H49.7283V52.987H54.164V54.4137H47.9891Z" fill="#3A4166"/>
<path d="M59.1927 54.5348C58.4647 54.5348 57.7816 54.4361 57.1434 54.2387C56.5052 54.0413 55.966 53.7631 55.5255 53.4042L56.1053 52.139C56.5637 52.489 57.0445 52.7447 57.5479 52.9062C58.0602 53.0677 58.613 53.1485 59.2062 53.1485C59.8623 53.1485 60.3656 53.0363 60.7162 52.812C61.0757 52.5787 61.2555 52.2557 61.2555 51.8429C61.2555 51.484 61.0892 51.2103 60.7566 51.0219C60.433 50.8334 59.8893 50.654 59.1253 50.4835C58.3343 50.313 57.6917 50.1156 57.1973 49.8913C56.703 49.6669 56.33 49.3798 56.0783 49.0298C55.8266 48.6799 55.7008 48.2357 55.7008 47.6973C55.7008 47.141 55.8536 46.643 56.1592 46.2033C56.4648 45.7636 56.8962 45.4227 57.4535 45.1804C58.0108 44.9292 58.6534 44.8035 59.3814 44.8035C60.0466 44.8035 60.6802 44.9067 61.2824 45.1131C61.8846 45.3105 62.379 45.5842 62.7655 45.9341L62.1857 47.1993C61.3408 46.5264 60.4061 46.1899 59.3814 46.1899C58.7702 46.1899 58.2849 46.3155 57.9254 46.5667C57.5748 46.809 57.3996 47.15 57.3996 47.5897C57.3996 47.9576 57.5569 48.2402 57.8714 48.4376C58.186 48.635 58.7208 48.819 59.4758 48.9895C60.2758 49.1689 60.9229 49.3708 61.4172 49.5951C61.9206 49.8105 62.3026 50.0887 62.5632 50.4296C62.8329 50.7706 62.9677 51.2013 62.9677 51.7218C62.9677 52.2871 62.8149 52.7851 62.5093 53.2158C62.2127 53.6375 61.7768 53.965 61.2015 54.1983C60.6353 54.4226 59.9657 54.5348 59.1927 54.5348Z" fill="#3A4166"/>
<path d="M77.0296 44.9247H78.6879L75.3308 54.4137H73.9152L71.5288 47.5897L69.129 54.4137H67.7134L64.3698 44.9247H66.1225L68.4819 51.991L70.9626 44.9247H72.1895L74.6028 52.0313L77.0296 44.9247Z" fill="#3A4166"/>
<path d="M83.766 54.5348C83.038 54.5348 82.3549 54.4361 81.7167 54.2387C81.0786 54.0413 80.5393 53.7631 80.0989 53.4042L80.6786 52.139C81.137 52.489 81.6178 52.7447 82.1212 52.9062C82.6335 53.0677 83.1863 53.1485 83.7795 53.1485C84.4356 53.1485 84.9389 53.0363 85.2895 52.812C85.649 52.5787 85.8288 52.2557 85.8288 51.8429C85.8288 51.484 85.6625 51.2103 85.3299 51.0219C85.0063 50.8334 84.4626 50.654 83.6986 50.4835C82.9076 50.313 82.265 50.1156 81.7706 49.8913C81.2763 49.6669 80.9033 49.3798 80.6516 49.0298C80.4 48.6799 80.2741 48.2357 80.2741 47.6973C80.2741 47.141 80.4269 46.643 80.7325 46.2033C81.0381 45.7636 81.4695 45.4227 82.0268 45.1804C82.5841 44.9292 83.2267 44.8035 83.9547 44.8035C84.6199 44.8035 85.2535 44.9067 85.8557 45.1131C86.4579 45.3105 86.9523 45.5842 87.3388 45.9341L86.759 47.1993C85.9141 46.5264 84.9794 46.1899 83.9547 46.1899C83.3436 46.1899 82.8582 46.3155 82.4987 46.5667C82.1481 46.809 81.9729 47.15 81.9729 47.5897C81.9729 47.9576 82.1302 48.2402 82.4447 48.4376C82.7593 48.635 83.2941 48.819 84.0491 48.9895C84.8491 49.1689 85.4962 49.3708 85.9905 49.5951C86.4939 49.8105 86.8759 50.0887 87.1365 50.4296C87.4062 50.7706 87.541 51.2013 87.541 51.7218C87.541 52.2871 87.3882 52.7851 87.0826 53.2158C86.786 53.6375 86.3501 53.965 85.7748 54.1983C85.2086 54.4226 84.539 54.5348 83.766 54.5348Z" fill="#3A4166"/>
<path d="M102.9 47.8319H104.544L101.956 54.4137H100.486L98.8684 50.1739L97.291 54.4137H95.8349L93.2329 47.8319H94.9586L96.6439 52.4082L98.3291 47.8319H99.5425L101.228 52.4351L102.9 47.8319Z" fill="#3A4166"/>
<path d="M106.222 54.4137V47.8319H107.907V54.4137H106.222ZM106.128 44.7766H107.988V46.4321H106.128V44.7766Z" fill="#3A4166"/>
<path d="M113.69 53.2562C113.888 53.2562 114.094 53.2427 114.31 53.2158L114.229 54.4675C113.96 54.4944 113.712 54.5079 113.488 54.5079C112.562 54.5079 111.879 54.297 111.439 53.8753C110.998 53.4446 110.778 52.8075 110.778 51.964V49.0971H109.511V47.8319H110.778V45.8668H112.463V47.8319H114.202V49.0971H112.463V51.9371C112.463 52.8165 112.872 53.2562 113.69 53.2562Z" fill="#3A4166"/>
<path d="M119.799 47.6704C120.59 47.6704 121.179 47.8947 121.565 48.3434C121.952 48.7921 122.145 49.4695 122.145 50.3758V54.4137H120.46V50.47C120.46 49.9586 120.361 49.5862 120.163 49.3529C119.975 49.1196 119.673 49.0029 119.26 49.0029C118.775 49.0029 118.384 49.1555 118.087 49.4605C117.799 49.7656 117.656 50.1739 117.656 50.6854V54.4137H115.97V44.9247H117.656V48.7472C117.88 48.3972 118.177 48.1325 118.545 47.9531C118.923 47.7646 119.341 47.6704 119.799 47.6704Z" fill="#3A4166"/>
<path d="M129.014 54.4137V44.9247H130.753V52.987H135.188V54.4137H129.014Z" fill="#3A4166"/>
<path d="M140.217 54.5348C139.489 54.5348 138.806 54.4361 138.168 54.2387C137.53 54.0413 136.99 53.7631 136.55 53.4042L137.13 52.139C137.588 52.489 138.069 52.7447 138.572 52.9062C139.085 53.0677 139.637 53.1485 140.231 53.1485C140.887 53.1485 141.39 53.0363 141.741 52.812C142.1 52.5787 142.28 52.2557 142.28 51.8429C142.28 51.484 142.114 51.2103 141.781 51.0219C141.458 50.8334 140.914 50.654 140.15 50.4835C139.359 50.313 138.716 50.1156 138.222 49.8913C137.727 49.6669 137.354 49.3798 137.103 49.0298C136.851 48.6799 136.725 48.2357 136.725 47.6973C136.725 47.141 136.878 46.643 137.184 46.2033C137.489 45.7636 137.921 45.4227 138.478 45.1804C139.035 44.9292 139.678 44.8035 140.406 44.8035C141.071 44.8035 141.705 44.9067 142.307 45.1131C142.909 45.3105 143.403 45.5842 143.79 45.9341L143.21 47.1993C142.365 46.5264 141.431 46.1899 140.406 46.1899C139.795 46.1899 139.309 46.3155 138.95 46.5667C138.599 46.809 138.424 47.15 138.424 47.5897C138.424 47.9576 138.581 48.2402 138.896 48.4376C139.211 48.635 139.745 48.819 140.5 48.9895C141.3 49.1689 141.947 49.3708 142.442 49.5951C142.945 49.8105 143.327 50.0887 143.588 50.4296C143.857 50.7706 143.992 51.2013 143.992 51.7218C143.992 52.2871 143.839 52.7851 143.534 53.2158C143.237 53.6375 142.801 53.965 142.226 54.1983C141.66 54.4226 140.99 54.5348 140.217 54.5348Z" fill="#3A4166"/>
<path d="M150.581 54.5348C149.646 54.5348 148.828 54.3374 148.127 53.9426C147.435 53.5388 146.9 52.969 146.523 52.2332C146.154 51.4974 145.97 50.6405 145.97 49.6624C145.97 48.6844 146.154 47.8319 146.523 47.1051C146.9 46.3693 147.435 45.804 148.127 45.4092C148.828 45.0054 149.646 44.8035 150.581 44.8035C151.219 44.8035 151.821 44.9022 152.387 45.0996C152.954 45.297 153.43 45.5752 153.817 45.9341L153.237 47.1993C152.805 46.8584 152.378 46.6116 151.956 46.4591C151.534 46.2975 151.084 46.2168 150.608 46.2168C149.691 46.2168 148.981 46.5129 148.478 47.1051C147.983 47.6973 147.736 48.5498 147.736 49.6624C147.736 50.7841 147.983 51.641 148.478 52.2332C148.981 52.8254 149.691 53.1216 150.608 53.1216C151.084 53.1216 151.534 53.0453 151.956 52.8927C152.378 52.7312 152.805 52.48 153.237 52.139L153.817 53.4042C153.43 53.7631 152.954 54.0413 152.387 54.2387C151.821 54.4361 151.219 54.5348 150.581 54.5348Z" fill="#3A4166"/>
<path d="M158.629 47.6704C159.555 47.6704 160.243 47.8947 160.692 48.3434C161.141 48.7921 161.366 49.483 161.366 50.4162V54.4137H159.762V53.4042C159.609 53.7542 159.366 54.0278 159.034 54.2252C158.71 54.4226 158.333 54.5214 157.901 54.5214C157.461 54.5214 157.061 54.4316 156.701 54.2522C156.342 54.0727 156.059 53.8259 155.852 53.5119C155.645 53.1978 155.542 52.8479 155.542 52.462C155.542 51.9775 155.663 51.5961 155.906 51.318C156.158 51.0398 156.562 50.8379 157.119 50.7123C157.677 50.5867 158.445 50.5239 159.425 50.5239H159.762V50.2143C159.762 49.7656 159.663 49.4426 159.465 49.2452C159.276 49.0478 158.957 48.9491 158.508 48.9491C158.157 48.9491 157.789 49.0119 157.402 49.1375C157.025 49.2542 156.652 49.4202 156.283 49.6355L155.811 48.478C156.18 48.2447 156.625 48.0518 157.146 47.8992C157.668 47.7467 158.162 47.6704 158.629 47.6704ZM158.238 53.31C158.688 53.31 159.052 53.1619 159.33 52.8658C159.618 52.5607 159.762 52.1704 159.762 51.6948V51.4122H159.519C158.917 51.4122 158.449 51.4391 158.117 51.4929C157.784 51.5468 157.546 51.641 157.402 51.7756C157.259 51.9102 157.187 52.0941 157.187 52.3274C157.187 52.6146 157.286 52.8524 157.483 53.0408C157.681 53.2203 157.933 53.31 158.238 53.31Z" fill="#3A4166"/>
<path d="M166.76 54.5214C166.067 54.5214 165.465 54.3823 164.953 54.1041C164.45 53.8259 164.063 53.4311 163.793 52.9197C163.524 52.4082 163.389 51.8115 163.389 51.1295C163.389 50.4476 163.528 49.8464 163.807 49.326C164.095 48.7965 164.499 48.3883 165.02 48.1011C165.542 47.814 166.144 47.6704 166.827 47.6704C167.294 47.6704 167.748 47.7467 168.189 47.8992C168.638 48.0428 168.998 48.2402 169.267 48.4915L168.782 49.6759C168.503 49.4516 168.207 49.2811 167.892 49.1644C167.586 49.0478 167.281 48.9895 166.975 48.9895C166.391 48.9895 165.937 49.1734 165.614 49.5413C165.29 49.9002 165.128 50.4207 165.128 51.1026C165.128 51.7756 165.29 52.296 165.614 52.6639C165.937 53.0229 166.391 53.2023 166.975 53.2023C167.281 53.2023 167.586 53.144 167.892 53.0273C168.207 52.9107 168.503 52.7402 168.782 52.5159L169.267 53.6869C168.98 53.9471 168.611 54.1535 168.162 54.306C167.712 54.4496 167.245 54.5214 166.76 54.5214Z" fill="#3A4166"/>
<path d="M174.839 47.6704C175.63 47.6704 176.219 47.8947 176.605 48.3434C176.992 48.7921 177.185 49.4695 177.185 50.3758V54.4137H175.5V50.47C175.5 49.9586 175.401 49.5862 175.203 49.3529C175.014 49.1196 174.713 49.0029 174.3 49.0029C173.814 49.0029 173.423 49.1555 173.127 49.4605C172.839 49.7656 172.695 50.1739 172.695 50.6854V54.4137H171.01V44.9247H172.695V48.7472C172.92 48.3972 173.217 48.1325 173.585 47.9531C173.963 47.7646 174.381 47.6704 174.839 47.6704Z" fill="#3A4166"/>
<path d="M185.355 51.4256H180.865C180.919 52.0358 181.103 52.489 181.418 52.7851C181.732 53.0812 182.182 53.2292 182.766 53.2292C183.494 53.2292 184.159 52.9959 184.761 52.5293L185.247 53.6869C184.941 53.9381 184.555 54.14 184.087 54.2925C183.629 54.4451 183.166 54.5214 182.699 54.5214C181.62 54.5214 180.766 54.2163 180.137 53.6061C179.517 52.9959 179.207 52.1614 179.207 51.1026C179.207 50.4296 179.342 49.8329 179.611 49.3125C179.881 48.7921 180.258 48.3883 180.744 48.1011C181.238 47.814 181.795 47.6704 182.416 47.6704C183.323 47.6704 184.038 47.962 184.559 48.5453C185.089 49.1285 185.355 49.9316 185.355 50.9546V51.4256ZM182.456 48.8549C182.007 48.8549 181.643 48.9984 181.364 49.2856C181.094 49.5727 180.928 49.9855 180.865 50.5239H183.912C183.894 49.9765 183.759 49.5637 183.508 49.2856C183.256 48.9984 182.905 48.8549 182.456 48.8549Z" fill="#3A4166"/>
<path d="M199.858 54.4137H197.97L196.339 51.3853C196.186 51.0981 195.997 50.8962 195.773 50.7796C195.548 50.6629 195.265 50.6046 194.923 50.6046H193.602V54.4137H191.89V44.9247H196.096C197.175 44.9247 197.993 45.1669 198.55 45.6515C199.116 46.1271 199.399 46.818 199.399 47.7243C199.399 48.4511 199.193 49.0523 198.779 49.5278C198.375 49.9944 197.8 50.2995 197.054 50.4431C197.557 50.5777 197.961 50.9321 198.267 51.5064L199.858 54.4137ZM195.854 49.2721C196.51 49.2721 196.991 49.151 197.296 48.9087C197.602 48.6575 197.755 48.2761 197.755 47.7646C197.755 47.2442 197.602 46.8673 197.296 46.634C196.991 46.3918 196.51 46.2706 195.854 46.2706H193.589V49.2721H195.854Z" fill="#3A4166"/>
<path d="M207.574 51.4256H203.084C203.138 52.0358 203.322 52.489 203.637 52.7851C203.952 53.0812 204.401 53.2292 204.985 53.2292C205.713 53.2292 206.378 52.9959 206.981 52.5293L207.466 53.6869C207.16 53.9381 206.774 54.14 206.307 54.2925C205.848 54.4451 205.385 54.5214 204.918 54.5214C203.839 54.5214 202.985 54.2163 202.356 53.6061C201.736 52.9959 201.426 52.1614 201.426 51.1026C201.426 50.4296 201.561 49.8329 201.83 49.3125C202.1 48.7921 202.478 48.3883 202.963 48.1011C203.457 47.814 204.015 47.6704 204.635 47.6704C205.543 47.6704 206.257 47.962 206.778 48.5453C207.309 49.1285 207.574 49.9316 207.574 50.9546V51.4256ZM204.675 48.8549C204.226 48.8549 203.862 48.9984 203.583 49.2856C203.313 49.5727 203.147 49.9855 203.084 50.5239H206.131C206.113 49.9765 205.978 49.5637 205.727 49.2856C205.475 48.9984 205.125 48.8549 204.675 48.8549Z" fill="#3A4166"/>
<path d="M212.053 54.5214C211.469 54.5214 210.93 54.4496 210.435 54.306C209.95 54.1624 209.537 53.956 209.195 53.6869L209.667 52.5159C210.368 53.0273 211.172 53.2831 212.08 53.2831C212.467 53.2831 212.759 53.2203 212.957 53.0946C213.163 52.969 213.267 52.7896 213.267 52.5563C213.267 52.3588 213.195 52.2063 213.051 52.0986C212.916 51.9909 212.669 51.8922 212.309 51.8025L211.231 51.5602C210.62 51.4256 210.166 51.2058 209.869 50.9007C209.573 50.5956 209.424 50.2008 209.424 49.7163C209.424 49.3125 209.537 48.9581 209.761 48.653C209.995 48.3389 210.314 48.0966 210.719 47.9262C211.132 47.7557 211.608 47.6704 212.148 47.6704C212.615 47.6704 213.064 47.7422 213.496 47.8858C213.936 48.0293 214.323 48.2312 214.655 48.4915L214.183 49.6355C213.5 49.142 212.817 48.8952 212.134 48.8952C211.766 48.8952 211.478 48.9625 211.271 49.0971C211.065 49.2317 210.961 49.4202 210.961 49.6624C210.961 49.8419 211.024 49.99 211.15 50.1066C211.285 50.2233 211.496 50.313 211.784 50.3758L212.903 50.6315C213.559 50.7751 214.04 51.0039 214.345 51.318C214.651 51.6231 214.804 52.0268 214.804 52.5293C214.804 53.1395 214.556 53.624 214.062 53.983C213.568 54.3419 212.898 54.5214 212.053 54.5214Z" fill="#3A4166"/>
<path d="M220.633 47.6704C221.199 47.6704 221.702 47.814 222.143 48.1011C222.592 48.3883 222.938 48.7965 223.181 49.326C223.432 49.8464 223.558 50.4476 223.558 51.1295C223.558 51.8115 223.432 52.4082 223.181 52.9197C222.938 53.4311 222.597 53.8259 222.156 54.1041C221.716 54.3823 221.208 54.5214 220.633 54.5214C220.165 54.5214 219.747 54.4226 219.379 54.2252C219.01 54.0278 218.727 53.7542 218.529 53.4042V56.8364H216.844V47.8319H218.502V48.8279C218.7 48.4601 218.983 48.1774 219.352 47.98C219.729 47.7736 220.156 47.6704 220.633 47.6704ZM220.188 53.2158C220.718 53.2158 221.131 53.0363 221.428 52.6774C221.725 52.3095 221.873 51.7935 221.873 51.1295C221.873 50.4476 221.725 49.9182 221.428 49.5413C221.131 49.1644 220.718 48.976 220.188 48.976C219.648 48.976 219.231 49.16 218.934 49.5278C218.646 49.8957 218.502 50.4207 218.502 51.1026C218.502 51.7756 218.646 52.296 218.934 52.6639C219.231 53.0318 219.648 53.2158 220.188 53.2158Z" fill="#3A4166"/>
<path d="M228.622 54.5214C227.948 54.5214 227.355 54.3823 226.842 54.1041C226.339 53.8259 225.948 53.4266 225.669 52.9062C225.391 52.3858 225.251 51.7801 225.251 51.0892C225.251 50.3982 225.391 49.797 225.669 49.2856C225.948 48.7651 226.339 48.3658 226.842 48.0877C227.355 47.8095 227.948 47.6704 228.622 47.6704C229.296 47.6704 229.885 47.8095 230.388 48.0877C230.9 48.3658 231.291 48.7651 231.561 49.2856C231.84 49.797 231.979 50.3982 231.979 51.0892C231.979 51.7801 231.84 52.3858 231.561 52.9062C231.291 53.4266 230.9 53.8259 230.388 54.1041C229.885 54.3823 229.296 54.5214 228.622 54.5214ZM228.609 53.2158C229.157 53.2158 229.575 53.0363 229.862 52.6774C230.15 52.3185 230.294 51.7891 230.294 51.0892C230.294 50.3982 230.15 49.8733 229.862 49.5144C229.575 49.1465 229.161 48.9625 228.622 48.9625C228.083 48.9625 227.665 49.1465 227.368 49.5144C227.081 49.8733 226.937 50.3982 226.937 51.0892C226.937 51.7891 227.081 52.3185 227.368 52.6774C227.656 53.0363 228.069 53.2158 228.609 53.2158Z" fill="#3A4166"/>
<path d="M237.873 47.6704C238.664 47.6704 239.253 47.8947 239.64 48.3434C240.026 48.7921 240.219 49.4695 240.219 50.3758V54.4137H238.534V50.47C238.534 49.9586 238.435 49.5862 238.237 49.3529C238.049 49.1196 237.748 49.0029 237.334 49.0029C236.849 49.0029 236.458 49.1555 236.161 49.4605C235.874 49.7656 235.73 50.1739 235.73 50.6854V54.4137H234.044V47.8319H235.689V48.8145C235.914 48.4466 236.215 48.1639 236.593 47.9665C236.97 47.7691 237.397 47.6704 237.873 47.6704Z" fill="#3A4166"/>
<path d="M249.326 54.4137V46.3514H246.225V44.9247H254.166V46.3514H251.065V54.4137H249.326Z" fill="#3A4166"/>
<path d="M255.882 54.4137V47.8319H257.567V54.4137H255.882ZM255.787 44.7766H257.648V46.4321H255.787V44.7766Z" fill="#3A4166"/>
<path d="M267.812 47.6704C268.558 47.6704 269.116 47.8947 269.484 48.3434C269.853 48.7831 270.037 49.4605 270.037 50.3758V54.4137H268.352V50.4431C268.352 49.9406 268.266 49.5772 268.095 49.3529C267.925 49.1196 267.65 49.0029 267.273 49.0029C266.824 49.0029 266.473 49.1555 266.221 49.4605C265.97 49.7656 265.844 50.1919 265.844 50.7392V54.4137H264.159V50.4431C264.159 49.9406 264.073 49.5772 263.902 49.3529C263.741 49.1196 263.467 49.0029 263.08 49.0029C262.64 49.0029 262.294 49.1555 262.042 49.4605C261.79 49.7656 261.664 50.1919 261.664 50.7392V54.4137H259.979V47.8319H261.624V48.7606C261.822 48.4017 262.096 48.1325 262.446 47.9531C262.797 47.7646 263.197 47.6704 263.646 47.6704C264.644 47.6704 265.305 48.0832 265.628 48.9087C265.835 48.5229 266.131 48.2223 266.518 48.0069C266.904 47.7826 267.336 47.6704 267.812 47.6704Z" fill="#3A4166"/>
<path d="M278.208 51.4256H273.718C273.772 52.0358 273.956 52.489 274.271 52.7851C274.585 53.0812 275.035 53.2292 275.619 53.2292C276.347 53.2292 277.012 52.9959 277.614 52.5293L278.1 53.6869C277.794 53.9381 277.408 54.14 276.94 54.2925C276.482 54.4451 276.019 54.5214 275.552 54.5214C274.473 54.5214 273.619 54.2163 272.99 53.6061C272.37 52.9959 272.06 52.1614 272.06 51.1026C272.06 50.4296 272.195 49.8329 272.464 49.3125C272.734 48.7921 273.111 48.3883 273.597 48.1011C274.091 47.814 274.648 47.6704 275.269 47.6704C276.176 47.6704 276.891 47.962 277.412 48.5453C277.942 49.1285 278.208 49.9316 278.208 50.9546V51.4256ZM275.309 48.8549C274.86 48.8549 274.496 48.9984 274.217 49.2856C273.947 49.5727 273.781 49.9855 273.718 50.5239H276.765C276.747 49.9765 276.612 49.5637 276.361 49.2856C276.109 48.9984 275.758 48.8549 275.309 48.8549Z" fill="#3A4166"/>
<path d="M292.67 49.2856V53.8349C292.239 54.0503 291.713 54.2208 291.093 54.3464C290.482 54.472 289.857 54.5348 289.219 54.5348C288.239 54.5348 287.39 54.3419 286.671 53.956C285.952 53.5612 285.399 53.0004 285.012 52.2736C284.635 51.5378 284.446 50.6674 284.446 49.6624C284.446 48.6664 284.635 47.805 285.012 47.0782C285.399 46.3424 285.943 45.7816 286.644 45.3958C287.354 45.0009 288.185 44.8035 289.138 44.8035C289.803 44.8035 290.428 44.9022 291.012 45.0996C291.596 45.2881 292.082 45.5618 292.468 45.9207L291.888 47.1724C291.448 46.8314 291.012 46.5892 290.581 46.4456C290.158 46.2931 289.691 46.2168 289.178 46.2168C288.199 46.2168 287.457 46.5084 286.954 47.0917C286.46 47.6659 286.212 48.5229 286.212 49.6624C286.212 51.9954 287.237 53.1619 289.286 53.1619C289.898 53.1619 290.509 53.0767 291.12 52.9062V50.5239H289.071V49.2856H292.67Z" fill="#3A4166"/>
<path d="M297.988 47.6704C298.913 47.6704 299.601 47.8947 300.05 48.3434C300.5 48.7921 300.725 49.483 300.725 50.4162V54.4137H299.12V53.4042C298.967 53.7542 298.725 54.0278 298.392 54.2252C298.069 54.4226 297.691 54.5214 297.26 54.5214C296.819 54.5214 296.419 54.4316 296.06 54.2522C295.7 54.0727 295.417 53.8259 295.21 53.5119C295.004 53.1978 294.9 52.8479 294.9 52.462C294.9 51.9775 295.022 51.5961 295.264 51.318C295.516 51.0398 295.92 50.8379 296.478 50.7123C297.035 50.5867 297.803 50.5239 298.783 50.5239H299.12V50.2143C299.12 49.7656 299.021 49.4426 298.824 49.2452C298.635 49.0478 298.316 48.9491 297.866 48.9491C297.516 48.9491 297.147 49.0119 296.761 49.1375C296.383 49.2542 296.01 49.4202 295.642 49.6355L295.17 48.478C295.538 48.2447 295.983 48.0518 296.505 47.8992C297.026 47.7467 297.52 47.6704 297.988 47.6704ZM297.597 53.31C298.046 53.31 298.41 53.1619 298.689 52.8658C298.976 52.5607 299.12 52.1704 299.12 51.6948V51.4122H298.877C298.275 51.4122 297.808 51.4391 297.475 51.4929C297.143 51.5468 296.905 51.641 296.761 51.7756C296.617 51.9102 296.545 52.0941 296.545 52.3274C296.545 52.6146 296.644 52.8524 296.842 53.0408C297.039 53.2203 297.291 53.31 297.597 53.31Z" fill="#3A4166"/>
<path d="M303.111 54.4137V47.8319H304.797V54.4137H303.111ZM303.017 44.7766H304.878V46.4321H303.017V44.7766Z" fill="#3A4166"/>
<path d="M311.038 47.6704C311.829 47.6704 312.417 47.8947 312.804 48.3434C313.19 48.7921 313.384 49.4695 313.384 50.3758V54.4137H311.698V50.47C311.698 49.9586 311.599 49.5862 311.402 49.3529C311.213 49.1196 310.912 49.0029 310.498 49.0029C310.013 49.0029 309.622 49.1555 309.325 49.4605C309.038 49.7656 308.894 50.1739 308.894 50.6854V54.4137H307.209V47.8319H308.854V48.8145C309.078 48.4466 309.379 48.1639 309.757 47.9665C310.134 47.7691 310.561 47.6704 311.038 47.6704Z" fill="#3A4166"/>
<path fill-rule="evenodd" clip-rule="evenodd" d="M149.878 74.1552H150.777V212.789H392.556V213.686H149.878V74.1552Z" fill="#111A68" fill-opacity="0.3"/>
<path d="M72.3647 171.065L71.6636 169.441H68.356L67.6549 171.065H66.8999L69.6862 164.739H70.3244L73.1107 171.065H72.3647ZM68.6166 168.83H71.4029L70.0098 165.591L68.6166 168.83Z" fill="#3A4166" fill-opacity="0.7"/>
<path d="M76.5941 166.587C76.9776 166.587 77.3162 166.683 77.6098 166.874C77.9034 167.066 78.1311 167.335 78.2929 167.682C78.4547 168.023 78.5356 168.421 78.5356 168.875C78.5356 169.33 78.4547 169.728 78.2929 170.069C78.1311 170.404 77.9034 170.664 77.6098 170.849C77.3222 171.035 76.9836 171.128 76.5941 171.128C76.2526 171.128 75.953 171.053 75.6953 170.903C75.4436 170.754 75.2519 170.541 75.1201 170.266V172.68H74.392V166.695H75.1201V167.449C75.2519 167.173 75.4436 166.961 75.6953 166.812C75.953 166.662 76.2526 166.587 76.5941 166.587ZM76.4503 170.526C76.8757 170.526 77.2053 170.383 77.439 170.096C77.6727 169.809 77.7895 169.402 77.7895 168.875C77.7895 168.349 77.6727 167.939 77.439 167.646C77.2053 167.347 76.8757 167.197 76.4503 167.197C76.0249 167.197 75.6953 167.341 75.4616 167.628C75.2339 167.915 75.1201 168.325 75.1201 168.857C75.1201 169.39 75.2339 169.803 75.4616 170.096C75.6953 170.383 76.0249 170.526 76.4503 170.526Z" fill="#3A4166" fill-opacity="0.7"/>
<path d="M81.8524 166.587C82.4097 166.587 82.8232 166.731 83.0928 167.018C83.3684 167.299 83.5062 167.73 83.5062 168.31V171.065H82.7962V170.32C82.6823 170.577 82.5086 170.778 82.2749 170.921C82.0412 171.059 81.7715 171.128 81.4659 171.128C81.1843 171.128 80.9237 171.071 80.684 170.957C80.4503 170.843 80.2645 170.685 80.1267 170.482C79.9889 170.278 79.92 170.054 79.92 169.809C79.92 169.48 80.0039 169.225 80.1717 169.046C80.3394 168.86 80.6151 168.729 80.9986 168.651C81.3821 168.567 81.9154 168.525 82.5984 168.525H82.7962V168.229C82.7962 167.864 82.7213 167.601 82.5715 167.44C82.4217 167.272 82.179 167.188 81.8434 167.188C81.3401 167.188 80.8398 167.344 80.3424 167.655L80.0998 167.126C80.3275 166.964 80.6001 166.835 80.9177 166.74C81.2412 166.638 81.5528 166.587 81.8524 166.587ZM81.5648 170.553C81.9243 170.553 82.218 170.434 82.4457 170.194C82.6793 169.949 82.7962 169.635 82.7962 169.252V168.992H82.6344C82.1071 168.992 81.7056 169.016 81.43 169.064C81.1544 169.106 80.9566 169.18 80.8368 169.288C80.7229 169.39 80.666 169.542 80.666 169.746C80.666 169.979 80.7499 170.173 80.9177 170.329C81.0914 170.479 81.3072 170.553 81.5648 170.553Z" fill="#3A4166" fill-opacity="0.7"/>
<path d="M87.1399 171.128C86.7085 171.128 86.334 171.035 86.0164 170.849C85.6988 170.664 85.4531 170.404 85.2794 170.069C85.1116 169.728 85.0277 169.33 85.0277 168.875C85.0277 168.421 85.1146 168.023 85.2883 167.682C85.4681 167.335 85.7168 167.066 86.0344 166.874C86.3579 166.683 86.7354 166.587 87.1669 166.587C87.4605 166.587 87.7481 166.641 88.0297 166.749C88.3113 166.85 88.539 166.988 88.7128 167.162L88.4701 167.7C88.0567 167.365 87.6372 167.197 87.2118 167.197C86.7624 167.197 86.4119 167.344 86.1602 167.637C85.9085 167.93 85.7827 168.343 85.7827 168.875C85.7827 169.402 85.9085 169.809 86.1602 170.096C86.4119 170.383 86.7624 170.526 87.2118 170.526C87.6372 170.526 88.0567 170.359 88.4701 170.024L88.7128 170.562C88.5271 170.736 88.2934 170.873 88.0117 170.975C87.7301 171.077 87.4395 171.128 87.1399 171.128Z" fill="#3A4166" fill-opacity="0.7"/>
<path d="M92.2408 166.587C93.2894 166.587 93.8137 167.164 93.8137 168.319V171.065H93.0857V168.364C93.0857 167.957 93.0048 167.661 92.843 167.476C92.6872 167.29 92.4355 167.197 92.088 167.197C91.6865 167.197 91.3659 167.32 91.1263 167.565C90.8866 167.811 90.7667 168.143 90.7667 168.561V171.065H90.0387V164.739H90.7667V167.395C90.9105 167.132 91.1083 166.931 91.3599 166.794C91.6176 166.656 91.9112 166.587 92.2408 166.587Z" fill="#3A4166" fill-opacity="0.7"/>
<path d="M99.2637 168.992H96.0639C96.0879 169.5 96.2257 169.886 96.4774 170.15C96.7291 170.407 97.0856 170.535 97.547 170.535C98.0563 170.535 98.5237 170.362 98.9491 170.015L99.1918 170.544C99.0001 170.724 98.7544 170.867 98.4548 170.975C98.1552 171.077 97.8496 171.128 97.538 171.128C96.8549 171.128 96.3156 170.927 95.9201 170.526C95.5307 170.126 95.3359 169.572 95.3359 168.866C95.3359 168.418 95.4228 168.023 95.5966 167.682C95.7703 167.335 96.013 167.066 96.3246 166.874C96.6422 166.683 97.0017 166.587 97.4032 166.587C97.9844 166.587 98.4398 166.779 98.7694 167.162C99.0989 167.538 99.2637 168.059 99.2637 168.723V168.992ZM97.4122 167.153C97.0287 167.153 96.7201 167.272 96.4864 167.511C96.2587 167.751 96.1239 168.089 96.0819 168.525H98.6256C98.6136 168.083 98.5027 167.745 98.293 167.511C98.0833 167.272 97.7897 167.153 97.4122 167.153Z" fill="#3A4166" fill-opacity="0.7"/>
<path d="M105.001 168.229V168.795H103.087V170.697H102.529V168.795H100.615V168.229H102.529V166.318H103.087V168.229H105.001Z" fill="#3A4166" fill-opacity="0.7"/>
<path d="M114.822 164.739H115.541L113.33 171.065H112.7L110.894 165.887L109.087 171.065H108.467L106.247 164.739H106.993L108.791 170.024L110.633 164.739L111.19 164.748L113.006 170.033L114.822 164.739Z" fill="#3A4166" fill-opacity="0.7"/>
<path d="M119.86 167.817C120.232 167.924 120.516 168.11 120.714 168.373C120.912 168.63 121.011 168.956 121.011 169.351C121.011 169.901 120.822 170.335 120.444 170.652C120.073 170.969 119.567 171.128 118.926 171.128C118.518 171.128 118.126 171.059 117.748 170.921C117.371 170.784 117.053 170.592 116.795 170.347L117.074 169.782C117.649 170.266 118.26 170.508 118.908 170.508C119.357 170.508 119.698 170.41 119.932 170.212C120.166 170.009 120.283 169.713 120.283 169.324C120.283 168.552 119.797 168.166 118.827 168.166H118.099V167.547H118.683C119.15 167.547 119.51 167.446 119.761 167.242C120.013 167.033 120.139 166.734 120.139 166.345C120.139 166.004 120.037 165.744 119.833 165.564C119.63 165.379 119.339 165.286 118.961 165.286C118.35 165.286 117.751 165.528 117.164 166.013L116.885 165.448C117.143 165.202 117.457 165.011 117.829 164.873C118.2 164.736 118.587 164.667 118.988 164.667C119.564 164.667 120.019 164.814 120.355 165.107C120.696 165.394 120.867 165.783 120.867 166.273C120.867 166.638 120.777 166.958 120.597 167.233C120.424 167.502 120.178 167.697 119.86 167.817Z" fill="#3A4166" fill-opacity="0.7"/>
<path d="M124.441 171.065V165.367H122.239V164.739H127.398V165.367H125.187V171.065H124.441Z" fill="#3A4166" fill-opacity="0.7"/>
<path d="M131.044 171.137C130.445 171.137 129.924 171.008 129.48 170.751C129.037 170.488 128.695 170.114 128.456 169.629C128.222 169.139 128.105 168.561 128.105 167.897C128.105 167.233 128.222 166.659 128.456 166.174C128.695 165.69 129.037 165.319 129.48 165.062C129.924 164.799 130.445 164.667 131.044 164.667C131.482 164.667 131.883 164.736 132.249 164.873C132.614 165.005 132.932 165.202 133.201 165.466L132.923 166.031C132.617 165.774 132.318 165.588 132.024 165.475C131.73 165.361 131.407 165.304 131.053 165.304C130.358 165.304 129.819 165.531 129.435 165.986C129.058 166.435 128.869 167.072 128.869 167.897C128.869 168.729 129.058 169.372 129.435 169.826C129.819 170.275 130.358 170.499 131.053 170.499C131.407 170.499 131.73 170.443 132.024 170.329C132.318 170.215 132.617 170.03 132.923 169.773L133.201 170.338C132.932 170.601 132.614 170.802 132.249 170.939C131.883 171.071 131.482 171.137 131.044 171.137Z" fill="#3A4166" fill-opacity="0.7"/>
<path d="M86.2872 136.025H86.9793V142.351H86.413L82.5931 137.263V142.351H81.901V136.025H82.4673L86.2872 141.112V136.025Z" fill="#3A4166" fill-opacity="0.7"/>
<path d="M92.8059 137.981V142.055C92.8059 142.707 92.6381 143.197 92.3025 143.526C91.967 143.861 91.4696 144.029 90.8105 144.029C90.0435 144.029 89.3994 143.831 88.8781 143.436L89.1208 142.898C89.4144 143.089 89.69 143.227 89.9477 143.311C90.2053 143.395 90.4929 143.436 90.8105 143.436C91.23 143.436 91.5475 143.323 91.7633 143.095C91.979 142.874 92.0868 142.548 92.0868 142.117V141.346C91.961 141.627 91.7663 141.842 91.5026 141.992C91.2449 142.141 90.9393 142.216 90.5858 142.216C90.2023 142.216 89.8608 142.126 89.5612 141.947C89.2676 141.767 89.0369 141.513 88.8691 141.184C88.7073 140.855 88.6264 140.475 88.6264 140.045C88.6264 139.614 88.7073 139.234 88.8691 138.905C89.0369 138.576 89.2676 138.322 89.5612 138.142C89.8608 137.963 90.2023 137.873 90.5858 137.873C90.9334 137.873 91.236 137.948 91.4936 138.097C91.7513 138.247 91.946 138.459 92.0778 138.735V137.981H92.8059ZM90.7296 141.615C91.1491 141.615 91.4786 141.477 91.7183 141.202C91.958 140.921 92.0778 140.535 92.0778 140.045C92.0778 139.56 91.958 139.18 91.7183 138.905C91.4846 138.624 91.1551 138.483 90.7296 138.483C90.3042 138.483 89.9686 138.624 89.723 138.905C89.4833 139.18 89.3634 139.56 89.3634 140.045C89.3634 140.535 89.4833 140.921 89.723 141.202C89.9686 141.477 90.3042 141.615 90.7296 141.615Z" fill="#3A4166" fill-opacity="0.7"/>
<path d="M94.6029 142.351V137.981H95.331V142.351H94.6029ZM94.531 136.087H95.4119V136.904H94.531V136.087Z" fill="#3A4166" fill-opacity="0.7"/>
<path d="M99.3434 137.873C100.392 137.873 100.916 138.45 100.916 139.605V142.351H100.188V139.65C100.188 139.243 100.107 138.947 99.9456 138.761C99.7899 138.576 99.5382 138.483 99.1906 138.483C98.7892 138.483 98.4686 138.606 98.2289 138.851C97.9892 139.096 97.8694 139.428 97.8694 139.847V142.351H97.1414V137.981H97.8604V138.699C98.0042 138.429 98.205 138.226 98.4626 138.088C98.7203 137.945 99.0139 137.873 99.3434 137.873Z" fill="#3A4166" fill-opacity="0.7"/>
<path d="M104.784 140.098L106.6 142.351H105.719L104.353 140.646L102.996 142.351H102.106L103.922 140.098L102.214 137.981H103.095L104.353 139.569L105.611 137.981H106.501L104.784 140.098Z" fill="#3A4166" fill-opacity="0.7"/>
<path d="M112.016 139.515V140.08H110.102V141.983H109.544V140.08H107.63V139.515H109.544V137.604H110.102V139.515H112.016Z" fill="#3A4166" fill-opacity="0.7"/>
<path d="M113.747 142.351V136.025H117.666V136.644H114.475V138.824H117.486V139.443H114.475V142.351H113.747Z" fill="#3A4166" fill-opacity="0.7"/>
<path d="M121.765 142.422C121.166 142.422 120.644 142.294 120.201 142.037C119.757 141.773 119.416 141.4 119.176 140.915C118.943 140.424 118.826 139.847 118.826 139.183C118.826 138.519 118.943 137.945 119.176 137.46C119.416 136.976 119.757 136.605 120.201 136.348C120.644 136.084 121.166 135.953 121.765 135.953C122.202 135.953 122.604 136.022 122.969 136.159C123.335 136.291 123.652 136.488 123.922 136.751L123.643 137.317C123.338 137.06 123.038 136.874 122.745 136.76C122.451 136.647 122.127 136.59 121.774 136.59C121.079 136.59 120.539 136.817 120.156 137.272C119.778 137.721 119.59 138.358 119.59 139.183C119.59 140.015 119.778 140.658 120.156 141.112C120.539 141.561 121.079 141.785 121.774 141.785C122.127 141.785 122.451 141.729 122.745 141.615C123.038 141.501 123.338 141.316 123.643 141.059L123.922 141.624C123.652 141.887 123.335 142.087 122.969 142.225C122.604 142.357 122.202 142.422 121.765 142.422Z" fill="#3A4166" fill-opacity="0.7"/>
<path d="M130.51 139.058V141.983C130.259 142.114 129.929 142.222 129.522 142.306C129.12 142.384 128.713 142.422 128.299 142.422C127.67 142.422 127.128 142.294 126.672 142.037C126.217 141.779 125.867 141.408 125.621 140.924C125.381 140.439 125.261 139.859 125.261 139.183C125.261 138.513 125.381 137.936 125.621 137.451C125.861 136.967 126.205 136.596 126.654 136.339C127.104 136.081 127.634 135.953 128.245 135.953C128.689 135.953 129.096 136.022 129.468 136.159C129.839 136.291 130.157 136.488 130.42 136.751L130.142 137.317C129.836 137.054 129.534 136.865 129.234 136.751C128.94 136.638 128.611 136.581 128.245 136.581C127.532 136.581 126.984 136.805 126.601 137.254C126.217 137.703 126.025 138.346 126.025 139.183C126.025 140.039 126.22 140.691 126.61 141.139C126.999 141.582 127.568 141.803 128.317 141.803C128.863 141.803 129.369 141.723 129.836 141.561V139.632H128.263V139.058H130.51Z" fill="#3A4166" fill-opacity="0.7"/>
<path d="M132.448 142.351V136.025H133.186V142.351H132.448Z" fill="#3A4166" fill-opacity="0.7"/>
<path d="M73.8118 113.637V107.311H74.5488V113.009H77.7216V113.637H73.8118Z" fill="#3A4166" fill-opacity="0.7"/>
<path d="M80.9792 113.709C79.9905 113.709 79.1996 113.443 78.6064 112.91L78.894 112.345C79.2056 112.608 79.5231 112.797 79.8467 112.91C80.1763 113.024 80.5568 113.081 80.9882 113.081C81.4975 113.081 81.89 112.982 82.1656 112.785C82.4413 112.587 82.5791 112.309 82.5791 111.95C82.5791 111.741 82.5132 111.57 82.3814 111.439C82.2495 111.307 82.0758 111.202 81.86 111.125C81.6443 111.047 81.3537 110.966 80.9882 110.882C80.4968 110.769 80.0924 110.649 79.7748 110.523C79.4632 110.398 79.2086 110.218 79.0108 109.985C78.8191 109.752 78.7232 109.447 78.7232 109.07C78.7232 108.711 78.8161 108.394 79.0018 108.119C79.1936 107.837 79.4632 107.622 79.8108 107.473C80.1643 107.317 80.5718 107.239 81.0331 107.239C81.4706 107.239 81.878 107.308 82.2555 107.446C82.639 107.583 82.9626 107.781 83.2262 108.038L82.9476 108.603C82.648 108.346 82.3424 108.16 82.0308 108.047C81.7252 107.927 81.3927 107.867 81.0331 107.867C80.5418 107.867 80.1553 107.972 79.8737 108.181C79.598 108.385 79.4602 108.672 79.4602 109.043C79.4602 109.36 79.5831 109.599 79.8287 109.761C80.0744 109.922 80.4459 110.06 80.9433 110.173C81.4885 110.305 81.917 110.428 82.2286 110.541C82.5401 110.649 82.7978 110.814 83.0015 111.035C83.2113 111.256 83.3161 111.552 83.3161 111.923C83.3161 112.282 83.2202 112.596 83.0285 112.865C82.8427 113.135 82.5731 113.344 82.2196 113.493C81.866 113.637 81.4526 113.709 80.9792 113.709Z" fill="#3A4166" fill-opacity="0.7"/>
<path d="M92.9554 107.311H93.6744L91.4633 113.637H90.8342L89.0276 108.46L87.2209 113.637H86.6008L84.3807 107.311H85.1267L86.9243 112.596L88.7669 107.311L89.3242 107.32L91.1398 112.605L92.9554 107.311Z" fill="#3A4166" fill-opacity="0.7"/>
<path d="M97.1244 113.709C96.1357 113.709 95.3448 113.443 94.7516 112.91L95.0392 112.345C95.3508 112.608 95.6684 112.797 95.9919 112.91C96.3215 113.024 96.702 113.081 97.1334 113.081C97.6427 113.081 98.0352 112.982 98.3109 112.785C98.5865 112.587 98.7243 112.309 98.7243 111.95C98.7243 111.741 98.6584 111.57 98.5266 111.439C98.3947 111.307 98.221 111.202 98.0053 111.125C97.7895 111.047 97.4989 110.966 97.1334 110.882C96.6421 110.769 96.2376 110.649 95.92 110.523C95.6084 110.398 95.3538 110.218 95.156 109.985C94.9643 109.752 94.8684 109.447 94.8684 109.07C94.8684 108.711 94.9613 108.394 95.147 108.119C95.3388 107.837 95.6084 107.622 95.956 107.473C96.3095 107.317 96.717 107.239 97.1784 107.239C97.6158 107.239 98.0232 107.308 98.4007 107.446C98.7842 107.583 99.1078 107.781 99.3714 108.038L99.0928 108.603C98.7932 108.346 98.4876 108.16 98.176 108.047C97.8704 107.927 97.5379 107.867 97.1784 107.867C96.687 107.867 96.3005 107.972 96.0189 108.181C95.7433 108.385 95.6054 108.672 95.6054 109.043C95.6054 109.36 95.7283 109.599 95.9739 109.761C96.2196 109.922 96.5911 110.06 97.0885 110.173C97.6337 110.305 98.0622 110.428 98.3738 110.541C98.6854 110.649 98.943 110.814 99.1467 111.035C99.3565 111.256 99.4613 111.552 99.4613 111.923C99.4613 112.282 99.3655 112.596 99.1737 112.865C98.988 113.135 98.7183 113.344 98.3648 113.493C98.0112 113.637 97.5978 113.709 97.1244 113.709Z" fill="#3A4166" fill-opacity="0.7"/>
<path d="M105.215 110.802V111.367H103.301V113.269H102.744V111.367H100.829V110.802H102.744V108.89H103.301V110.802H105.215Z" fill="#3A4166" fill-opacity="0.7"/>
<path d="M115.036 107.311H115.755L113.544 113.637H112.915L111.108 108.46L109.301 113.637H108.681L106.461 107.311H107.207L109.005 112.596L110.847 107.311L111.405 107.32L113.22 112.605L115.036 107.311Z" fill="#3A4166" fill-opacity="0.7"/>
<path d="M120.074 110.389C120.446 110.496 120.731 110.682 120.928 110.945C121.126 111.202 121.225 111.528 121.225 111.923C121.225 112.474 121.036 112.907 120.659 113.224C120.287 113.541 119.781 113.7 119.14 113.7C118.732 113.7 118.34 113.631 117.962 113.493C117.585 113.356 117.267 113.164 117.01 112.919L117.288 112.354C117.863 112.838 118.475 113.081 119.122 113.081C119.571 113.081 119.913 112.982 120.146 112.785C120.38 112.581 120.497 112.285 120.497 111.896C120.497 111.125 120.012 110.739 119.041 110.739H118.313V110.12H118.897C119.364 110.12 119.724 110.018 119.976 109.815C120.227 109.605 120.353 109.306 120.353 108.917C120.353 108.576 120.251 108.316 120.048 108.137C119.844 107.951 119.553 107.858 119.176 107.858C118.564 107.858 117.965 108.101 117.378 108.585L117.099 108.02C117.357 107.775 117.672 107.583 118.043 107.446C118.415 107.308 118.801 107.239 119.203 107.239C119.778 107.239 120.233 107.386 120.569 107.679C120.91 107.966 121.081 108.355 121.081 108.845C121.081 109.21 120.991 109.53 120.811 109.806C120.638 110.075 120.392 110.269 120.074 110.389Z" fill="#3A4166" fill-opacity="0.7"/>
<path d="M124.655 113.637V107.939H122.453V107.311H127.612V107.939H125.401V113.637H124.655Z" fill="#3A4166" fill-opacity="0.7"/>
<path d="M131.259 113.709C130.659 113.709 130.138 113.58 129.695 113.323C129.251 113.06 128.91 112.686 128.67 112.201C128.436 111.711 128.319 111.134 128.319 110.47C128.319 109.806 128.436 109.231 128.67 108.747C128.91 108.262 129.251 107.891 129.695 107.634C130.138 107.371 130.659 107.239 131.259 107.239C131.696 107.239 132.097 107.308 132.463 107.446C132.828 107.577 133.146 107.775 133.416 108.038L133.137 108.603C132.831 108.346 132.532 108.16 132.238 108.047C131.945 107.933 131.621 107.876 131.268 107.876C130.572 107.876 130.033 108.104 129.65 108.558C129.272 109.007 129.083 109.644 129.083 110.47C129.083 111.301 129.272 111.944 129.65 112.399C130.033 112.847 130.572 113.072 131.268 113.072C131.621 113.072 131.945 113.015 132.238 112.901C132.532 112.788 132.831 112.602 133.137 112.345L133.416 112.91C133.146 113.173 132.828 113.374 132.463 113.511C132.097 113.643 131.696 113.709 131.259 113.709Z" fill="#3A4166" fill-opacity="0.7"/>
<path d="M54.9368 84.0251V77.6991H55.6738V83.397H58.8466V84.0251H54.9368Z" fill="#3A4166" fill-opacity="0.7"/>
<path d="M62.1042 84.0969C61.1155 84.0969 60.3246 83.8307 59.7314 83.2983L60.019 82.733C60.3306 82.9962 60.6481 83.1846 60.9717 83.2983C61.3013 83.412 61.6818 83.4688 62.1132 83.4688C62.6225 83.4688 63.015 83.3701 63.2906 83.1727C63.5663 82.9753 63.7041 82.6971 63.7041 82.3382C63.7041 82.1288 63.6382 81.9583 63.5064 81.8267C63.3745 81.6951 63.2008 81.5904 62.985 81.5127C62.7693 81.4349 62.4787 81.3541 62.1132 81.2704C61.6218 81.1567 61.2174 81.0371 60.8998 80.9115C60.5882 80.7858 60.3336 80.6064 60.1358 80.3731C59.9441 80.1398 59.8482 79.8347 59.8482 79.4578C59.8482 79.0989 59.9411 78.7819 60.1268 78.5067C60.3186 78.2255 60.5882 78.0102 60.9358 77.8606C61.2893 77.7051 61.6967 77.6273 62.1581 77.6273C62.5956 77.6273 63.003 77.6961 63.3805 77.8337C63.764 77.9713 64.0876 78.1687 64.3512 78.4259L64.0726 78.9912C63.773 78.734 63.4674 78.5486 63.1558 78.4349C62.8502 78.3153 62.5177 78.2554 62.1581 78.2554C61.6668 78.2554 61.2803 78.3601 60.9987 78.5695C60.723 78.7729 60.5852 79.06 60.5852 79.4309C60.5852 79.748 60.7081 79.9872 60.9537 80.1487C61.1994 80.3103 61.5709 80.4479 62.0683 80.5615C62.6135 80.6931 63.042 80.8157 63.3536 80.9294C63.6651 81.0371 63.9228 81.2016 64.1265 81.4229C64.3363 81.6443 64.4411 81.9404 64.4411 82.3113C64.4411 82.6702 64.3452 82.9842 64.1535 83.2534C63.9677 83.5226 63.6981 83.732 63.3446 83.8815C62.991 84.0251 62.5776 84.0969 62.1042 84.0969Z" fill="#3A4166" fill-opacity="0.7"/>
<path d="M74.0804 77.6991H74.7994L72.5883 84.0251H71.9592L70.1526 78.8477L68.3459 84.0251H67.7258L65.5057 77.6991H66.2517L68.0493 82.9842L69.8919 77.6991L70.4492 77.7081L72.2648 82.9932L74.0804 77.6991Z" fill="#3A4166" fill-opacity="0.7"/>
<path d="M78.2494 84.0969C77.2607 84.0969 76.4698 83.8307 75.8766 83.2983L76.1642 82.733C76.4758 82.9962 76.7934 83.1846 77.1169 83.2983C77.4465 83.412 77.827 83.4688 78.2584 83.4688C78.7677 83.4688 79.1602 83.3701 79.4358 83.1727C79.7115 82.9753 79.8493 82.6971 79.8493 82.3382C79.8493 82.1288 79.7834 81.9583 79.6516 81.8267C79.5197 81.6951 79.346 81.5904 79.1303 81.5127C78.9145 81.4349 78.6239 81.3541 78.2584 81.2704C77.7671 81.1567 77.3626 81.0371 77.045 80.9115C76.7334 80.7858 76.4788 80.6064 76.281 80.3731C76.0893 80.1398 75.9934 79.8347 75.9934 79.4578C75.9934 79.0989 76.0863 78.7819 76.272 78.5067C76.4638 78.2255 76.7334 78.0102 77.081 77.8606C77.4345 77.7051 77.842 77.6273 78.3033 77.6273C78.7408 77.6273 79.1482 77.6961 79.5257 77.8337C79.9092 77.9713 80.2328 78.1687 80.4964 78.4259L80.2178 78.9912C79.9182 78.734 79.6126 78.5486 79.301 78.4349C78.9954 78.3153 78.6629 78.2554 78.3033 78.2554C77.812 78.2554 77.4255 78.3601 77.1439 78.5695C76.8683 78.7729 76.7304 79.06 76.7304 79.4309C76.7304 79.748 76.8533 79.9872 77.0989 80.1487C77.3446 80.3103 77.7161 80.4479 78.2135 80.5615C78.7587 80.6931 79.1872 80.8157 79.4988 80.9294C79.8104 81.0371 80.068 81.2016 80.2717 81.4229C80.4815 81.6443 80.5863 81.9404 80.5863 82.3113C80.5863 82.6702 80.4905 82.9842 80.2987 83.2534C80.113 83.5226 79.8433 83.732 79.4898 83.8815C79.1362 84.0251 78.7228 84.0969 78.2494 84.0969Z" fill="#3A4166" fill-opacity="0.7"/>
<path d="M86.3404 81.1896V81.7549H84.4259V83.6572H83.8687V81.7549H81.9542V81.1896H83.8687V79.2784H84.4259V81.1896H86.3404Z" fill="#3A4166" fill-opacity="0.7"/>
<path d="M96.1609 77.6991H96.8799L94.6688 84.0251H94.0397L92.2331 78.8477L90.4265 84.0251H89.8063L87.5862 77.6991H88.3322L90.1299 82.9842L91.9724 77.6991L92.5297 77.7081L94.3453 82.9932L96.1609 77.6991Z" fill="#3A4166" fill-opacity="0.7"/>
<path d="M98.4132 77.6991H100.921C101.586 77.6991 102.101 77.8606 102.467 78.1836C102.838 78.5067 103.024 78.9643 103.024 79.5565C103.024 80.1487 102.838 80.6094 102.467 80.9384C102.095 81.2674 101.58 81.4319 100.921 81.4319H99.1502V84.0251H98.4132V77.6991ZM100.849 80.8217C101.814 80.8217 102.296 80.4 102.296 79.5565C102.296 78.725 101.814 78.3093 100.849 78.3093H99.1502V80.8217H100.849Z" fill="#3A4166" fill-opacity="0.7"/>
<path d="M109.644 84.0251H108.835L107.757 81.9972C107.625 81.7519 107.469 81.5844 107.289 81.4947C107.115 81.399 106.876 81.3511 106.57 81.3511H105.384V84.0251H104.656V77.6991H107.262C107.951 77.6991 108.476 77.8516 108.835 78.1567C109.201 78.4618 109.383 78.9105 109.383 79.5027C109.383 79.9932 109.243 80.391 108.961 80.6961C108.685 80.9952 108.29 81.1836 107.775 81.2614C107.936 81.3093 108.077 81.39 108.197 81.5037C108.323 81.6173 108.437 81.7699 108.539 81.9613L109.644 84.0251ZM107.199 80.741C107.691 80.741 108.056 80.6393 108.296 80.4359C108.542 80.2325 108.664 79.9244 108.664 79.5117C108.664 79.1049 108.545 78.8028 108.305 78.6054C108.065 78.408 107.697 78.3093 107.199 78.3093H105.384V80.741H107.199Z" fill="#3A4166" fill-opacity="0.7"/>
<path d="M112.975 84.0879C112.561 84.0879 112.196 83.9952 111.878 83.8098C111.566 83.6243 111.324 83.3611 111.15 83.0201C110.982 82.6732 110.898 82.2724 110.898 81.8177C110.898 81.3631 110.982 80.9653 111.15 80.6243C111.324 80.2774 111.566 80.0112 111.878 79.8257C112.196 79.6403 112.561 79.5476 112.975 79.5476C113.388 79.5476 113.754 79.6403 114.071 79.8257C114.389 80.0112 114.631 80.2774 114.799 80.6243C114.973 80.9653 115.06 81.3631 115.06 81.8177C115.06 82.2724 114.973 82.6732 114.799 83.0201C114.631 83.3611 114.389 83.6243 114.071 83.8098C113.754 83.9952 113.388 84.0879 112.975 84.0879ZM112.975 83.4867C113.406 83.4867 113.736 83.3461 113.963 83.065C114.197 82.7779 114.314 82.3621 114.314 81.8177C114.314 81.2853 114.197 80.8756 113.963 80.5884C113.73 80.2953 113.4 80.1487 112.975 80.1487C112.549 80.1487 112.22 80.2953 111.986 80.5884C111.752 80.8756 111.635 81.2853 111.635 81.8177C111.635 82.3561 111.749 82.7689 111.977 83.056C112.211 83.3432 112.543 83.4867 112.975 83.4867Z" fill="#3A4166" fill-opacity="0.7"/>
<path d="M118.446 84.0879C118.014 84.0879 117.64 83.9952 117.322 83.8098C117.004 83.6243 116.759 83.3641 116.585 83.0291C116.417 82.6881 116.333 82.2903 116.333 81.8357C116.333 81.381 116.42 80.9832 116.594 80.6423C116.774 80.2953 117.022 80.0261 117.34 79.8347C117.664 79.6433 118.041 79.5476 118.472 79.5476C118.766 79.5476 119.054 79.6014 119.335 79.7091C119.617 79.8108 119.845 79.9484 120.018 80.1218L119.776 80.6602C119.362 80.3252 118.943 80.1577 118.517 80.1577C118.068 80.1577 117.717 80.3043 117.466 80.5974C117.214 80.8905 117.088 81.3033 117.088 81.8357C117.088 82.3621 117.214 82.7689 117.466 83.056C117.717 83.3432 118.068 83.4867 118.517 83.4867C118.943 83.4867 119.362 83.3192 119.776 82.9842L120.018 83.5226C119.833 83.6961 119.599 83.8337 119.317 83.9354C119.036 84.0371 118.745 84.0879 118.446 84.0879Z" fill="#3A4166" fill-opacity="0.7"/>
<path d="M125.245 84.0251H124.301L122.072 81.9344V84.0251H121.344V77.6991H122.072V81.6383L124.113 79.6642H125.038L122.863 81.7549L125.245 84.0251Z" fill="#3A4166" fill-opacity="0.7"/>
<path d="M129.876 81.9523H126.676C126.7 82.4608 126.838 82.8466 127.09 83.1099C127.341 83.3671 127.698 83.4957 128.159 83.4957C128.668 83.4957 129.136 83.3222 129.561 82.9753L129.804 83.5047C129.612 83.6841 129.367 83.8277 129.067 83.9354C128.767 84.0371 128.462 84.0879 128.15 84.0879C127.467 84.0879 126.928 83.8875 126.532 83.4867C126.143 83.0859 125.948 82.5326 125.948 81.8267C125.948 81.3781 126.035 80.9832 126.209 80.6423C126.383 80.2953 126.625 80.0261 126.937 79.8347C127.254 79.6433 127.614 79.5476 128.015 79.5476C128.597 79.5476 129.052 79.739 129.382 80.1218C129.711 80.4987 129.876 81.0191 129.876 81.6831V81.9523ZM128.024 80.1129C127.641 80.1129 127.332 80.2325 127.099 80.4718C126.871 80.7111 126.736 81.049 126.694 81.4857H129.238C129.226 81.0431 129.115 80.7051 128.905 80.4718C128.695 80.2325 128.402 80.1129 128.024 80.1129Z" fill="#3A4166" fill-opacity="0.7"/>
<path d="M133.295 83.5047C133.427 83.5047 133.559 83.4957 133.691 83.4778L133.655 84.052C133.517 84.076 133.367 84.0879 133.205 84.0879C132.678 84.0879 132.279 83.9503 132.01 83.6752C131.746 83.4 131.614 83.0171 131.614 82.5266V80.2295H130.76V79.6552H131.614V78.3272H132.342V79.6552H133.583V80.2295H132.342V82.4728C132.342 83.1607 132.66 83.5047 133.295 83.5047Z" fill="#3A4166" fill-opacity="0.7"/>
<path d="M53.4897 199.778L52.7886 198.154H49.481L48.7799 199.778H48.0249L50.8112 193.452H51.4494L54.2357 199.778H53.4897ZM49.7416 197.544H52.5279L51.1348 194.305L49.7416 197.544Z" fill="#3A4166" fill-opacity="0.7"/>
<path d="M57.7191 195.301C58.1026 195.301 58.4412 195.396 58.7348 195.588C59.0284 195.779 59.2561 196.048 59.4179 196.395C59.5797 196.736 59.6606 197.134 59.6606 197.589C59.6606 198.043 59.5797 198.441 59.4179 198.782C59.2561 199.117 59.0284 199.377 58.7348 199.563C58.4472 199.748 58.1086 199.841 57.7191 199.841C57.3776 199.841 57.078 199.766 56.8203 199.617C56.5686 199.467 56.3769 199.255 56.2451 198.98V201.393H55.517V195.408H56.2451V196.162C56.3769 195.887 56.5686 195.674 56.8203 195.525C57.078 195.375 57.3776 195.301 57.7191 195.301ZM57.5753 199.24C58.0008 199.24 58.3303 199.096 58.564 198.809C58.7977 198.522 58.9145 198.115 58.9145 197.589C58.9145 197.062 58.7977 196.653 58.564 196.359C58.3303 196.06 58.0008 195.911 57.5753 195.911C57.1499 195.911 56.8203 196.054 56.5866 196.341C56.3589 196.629 56.2451 197.038 56.2451 197.571C56.2451 198.103 56.3589 198.516 56.5866 198.809C56.8203 199.096 57.1499 199.24 57.5753 199.24Z" fill="#3A4166" fill-opacity="0.7"/>
<path d="M62.9774 195.301C63.5347 195.301 63.9482 195.444 64.2178 195.731C64.4934 196.012 64.6312 196.443 64.6312 197.023V199.778H63.9212V199.033C63.8073 199.291 63.6336 199.491 63.3999 199.635C63.1662 199.772 62.8965 199.841 62.591 199.841C62.3093 199.841 62.0487 199.784 61.809 199.67C61.5753 199.557 61.3895 199.398 61.2517 199.195C61.1139 198.992 61.045 198.767 61.045 198.522C61.045 198.193 61.1289 197.939 61.2967 197.759C61.4644 197.574 61.7401 197.442 62.1236 197.364C62.5071 197.281 63.0404 197.239 63.7234 197.239H63.9212V196.943C63.9212 196.578 63.8463 196.315 63.6965 196.153C63.5467 195.986 63.304 195.902 62.9684 195.902C62.4651 195.902 61.9648 196.057 61.4674 196.368L61.2248 195.839C61.4525 195.677 61.7251 195.549 62.0427 195.453C62.3662 195.351 62.6778 195.301 62.9774 195.301ZM62.6898 199.267C63.0493 199.267 63.343 199.147 63.5707 198.908C63.8043 198.663 63.9212 198.348 63.9212 197.966V197.705H63.7594C63.2321 197.705 62.8306 197.729 62.555 197.777C62.2794 197.819 62.0816 197.894 61.9618 198.001C61.8479 198.103 61.791 198.256 61.791 198.459C61.791 198.692 61.8749 198.887 62.0427 199.042C62.2164 199.192 62.4322 199.267 62.6898 199.267Z" fill="#3A4166" fill-opacity="0.7"/>
<path d="M68.2649 199.841C67.8335 199.841 67.459 199.748 67.1414 199.563C66.8238 199.377 66.5781 199.117 66.4044 198.782C66.2366 198.441 66.1527 198.043 66.1527 197.589C66.1527 197.134 66.2396 196.736 66.4133 196.395C66.5931 196.048 66.8418 195.779 67.1594 195.588C67.4829 195.396 67.8604 195.301 68.2919 195.301C68.5855 195.301 68.8731 195.354 69.1547 195.462C69.4363 195.564 69.664 195.701 69.8378 195.875L69.5951 196.413C69.1817 196.078 68.7622 195.911 68.3368 195.911C67.8874 195.911 67.5369 196.057 67.2852 196.35C67.0335 196.644 66.9077 197.056 66.9077 197.589C66.9077 198.115 67.0335 198.522 67.2852 198.809C67.5369 199.096 67.8874 199.24 68.3368 199.24C68.7622 199.24 69.1817 199.072 69.5951 198.737L69.8378 199.276C69.6521 199.449 69.4184 199.587 69.1367 199.688C68.8551 199.79 68.5645 199.841 68.2649 199.841Z" fill="#3A4166" fill-opacity="0.7"/>
<path d="M73.3658 195.301C74.4144 195.301 74.9387 195.878 74.9387 197.032V199.778H74.2107V197.077C74.2107 196.67 74.1298 196.374 73.968 196.189C73.8122 196.003 73.5605 195.911 73.213 195.911C72.8115 195.911 72.4909 196.033 72.2513 196.279C72.0116 196.524 71.8917 196.856 71.8917 197.275V199.778H71.1637V193.452H71.8917V196.108C72.0355 195.845 72.2333 195.645 72.4849 195.507C72.7426 195.369 73.0362 195.301 73.3658 195.301Z" fill="#3A4166" fill-opacity="0.7"/>
<path d="M80.3887 197.705H77.1889C77.2129 198.214 77.3507 198.6 77.6024 198.863C77.8541 199.12 78.2106 199.249 78.672 199.249C79.1813 199.249 79.6487 199.075 80.0741 198.728L80.3168 199.258C80.1251 199.437 79.8794 199.581 79.5798 199.688C79.2802 199.79 78.9746 199.841 78.663 199.841C77.9799 199.841 77.4406 199.641 77.0451 199.24C76.6557 198.839 76.4609 198.286 76.4609 197.58C76.4609 197.131 76.5478 196.736 76.7216 196.395C76.8953 196.048 77.138 195.779 77.4496 195.588C77.7672 195.396 78.1267 195.301 78.5282 195.301C79.1094 195.301 79.5648 195.492 79.8944 195.875C80.2239 196.252 80.3887 196.772 80.3887 197.436V197.705ZM78.5372 195.866C78.1537 195.866 77.8451 195.986 77.6114 196.225C77.3837 196.464 77.2489 196.802 77.2069 197.239H79.7506C79.7386 196.796 79.6277 196.458 79.418 196.225C79.2083 195.986 78.9147 195.866 78.5372 195.866Z" fill="#3A4166" fill-opacity="0.7"/>
<path d="M86.1262 196.943V197.508H84.2117V199.41H83.6545V197.508H81.74V196.943H83.6545V195.031H84.2117V196.943H86.1262Z" fill="#3A4166" fill-opacity="0.7"/>
<path d="M95.9467 193.452H96.6657L94.4547 199.778H93.8255L92.0189 194.601L90.2123 199.778H89.5921L87.372 193.452H88.118L89.9157 198.737L91.7582 193.452L92.3155 193.461L94.1311 198.746L95.9467 193.452Z" fill="#3A4166" fill-opacity="0.7"/>
<path d="M98.199 193.452H100.707C101.372 193.452 101.887 193.614 102.253 193.937C102.624 194.26 102.81 194.717 102.81 195.31C102.81 195.902 102.624 196.362 102.253 196.691C101.881 197.02 101.366 197.185 100.707 197.185H98.936V199.778H98.199V193.452ZM100.635 196.575C101.599 196.575 102.082 196.153 102.082 195.31C102.082 194.478 101.599 194.062 100.635 194.062H98.936V196.575H100.635Z" fill="#3A4166" fill-opacity="0.7"/>
<path d="M109.43 199.778H108.621L107.542 197.75C107.411 197.505 107.255 197.337 107.075 197.248C106.901 197.152 106.662 197.104 106.356 197.104H105.17V199.778H104.441V193.452H107.048C107.737 193.452 108.261 193.605 108.621 193.91C108.986 194.215 109.169 194.664 109.169 195.256C109.169 195.746 109.028 196.144 108.747 196.449C108.471 196.748 108.076 196.937 107.56 197.014C107.722 197.062 107.863 197.143 107.983 197.257C108.109 197.37 108.222 197.523 108.324 197.714L109.43 199.778ZM106.985 196.494C107.476 196.494 107.842 196.392 108.082 196.189C108.327 195.986 108.45 195.677 108.45 195.265C108.45 194.858 108.33 194.556 108.091 194.358C107.851 194.161 107.482 194.062 106.985 194.062H105.17V196.494H106.985Z" fill="#3A4166" fill-opacity="0.7"/>
<path d="M112.76 199.841C112.347 199.841 111.981 199.748 111.664 199.563C111.352 199.377 111.11 199.114 110.936 198.773C110.768 198.426 110.684 198.025 110.684 197.571C110.684 197.116 110.768 196.718 110.936 196.377C111.11 196.03 111.352 195.764 111.664 195.579C111.981 195.393 112.347 195.301 112.76 195.301C113.174 195.301 113.539 195.393 113.857 195.579C114.175 195.764 114.417 196.03 114.585 196.377C114.759 196.718 114.846 197.116 114.846 197.571C114.846 198.025 114.759 198.426 114.585 198.773C114.417 199.114 114.175 199.377 113.857 199.563C113.539 199.748 113.174 199.841 112.76 199.841ZM112.76 199.24C113.192 199.24 113.521 199.099 113.749 198.818C113.983 198.531 114.1 198.115 114.1 197.571C114.1 197.038 113.983 196.629 113.749 196.341C113.515 196.048 113.186 195.902 112.76 195.902C112.335 195.902 112.005 196.048 111.772 196.341C111.538 196.629 111.421 197.038 111.421 197.571C111.421 198.109 111.535 198.522 111.763 198.809C111.996 199.096 112.329 199.24 112.76 199.24Z" fill="#3A4166" fill-opacity="0.7"/>
<path d="M118.231 199.841C117.8 199.841 117.425 199.748 117.108 199.563C116.79 199.377 116.545 199.117 116.371 198.782C116.203 198.441 116.119 198.043 116.119 197.589C116.119 197.134 116.206 196.736 116.38 196.395C116.56 196.048 116.808 195.779 117.126 195.588C117.449 195.396 117.827 195.301 118.258 195.301C118.552 195.301 118.84 195.354 119.121 195.462C119.403 195.564 119.63 195.701 119.804 195.875L119.562 196.413C119.148 196.078 118.729 195.911 118.303 195.911C117.854 195.911 117.503 196.057 117.252 196.35C117 196.644 116.874 197.056 116.874 197.589C116.874 198.115 117 198.522 117.252 198.809C117.503 199.096 117.854 199.24 118.303 199.24C118.729 199.24 119.148 199.072 119.562 198.737L119.804 199.276C119.618 199.449 119.385 199.587 119.103 199.688C118.822 199.79 118.531 199.841 118.231 199.841Z" fill="#3A4166" fill-opacity="0.7"/>
<path d="M125.031 199.778H124.087L121.858 197.687V199.778H121.13V193.452H121.858V197.391L123.898 195.417H124.824L122.649 197.508L125.031 199.778Z" fill="#3A4166" fill-opacity="0.7"/>
<path d="M129.662 197.705H126.462C126.486 198.214 126.624 198.6 126.875 198.863C127.127 199.12 127.484 199.249 127.945 199.249C128.454 199.249 128.922 199.075 129.347 198.728L129.59 199.258C129.398 199.437 129.152 199.581 128.853 199.688C128.553 199.79 128.248 199.841 127.936 199.841C127.253 199.841 126.714 199.641 126.318 199.24C125.929 198.839 125.734 198.286 125.734 197.58C125.734 197.131 125.821 196.736 125.995 196.395C126.168 196.048 126.411 195.779 126.723 195.588C127.04 195.396 127.4 195.301 127.801 195.301C128.382 195.301 128.838 195.492 129.167 195.875C129.497 196.252 129.662 196.772 129.662 197.436V197.705ZM127.81 195.866C127.427 195.866 127.118 195.986 126.884 196.225C126.657 196.464 126.522 196.802 126.48 197.239H129.024C129.012 196.796 128.901 196.458 128.691 196.225C128.481 195.986 128.188 195.866 127.81 195.866Z" fill="#3A4166" fill-opacity="0.7"/>
<path d="M133.081 199.258C133.213 199.258 133.345 199.249 133.476 199.231L133.44 199.805C133.303 199.829 133.153 199.841 132.991 199.841C132.464 199.841 132.065 199.703 131.796 199.428C131.532 199.153 131.4 198.77 131.4 198.28V195.983H130.546V195.408H131.4V194.08H132.128V195.408H133.369V195.983H132.128V198.226C132.128 198.914 132.446 199.258 133.081 199.258Z" fill="#3A4166" fill-opacity="0.7"/>
<path d="M404.573 215.93V209.604H408.492V210.223H405.302V212.404H408.313V213.023H405.302V215.93H404.573Z" fill="#3A4166" fill-opacity="0.7"/>
<path d="M411.566 211.452C412.123 211.452 412.537 211.596 412.807 211.883C413.082 212.164 413.22 212.595 413.22 213.175V215.93H412.51V215.185C412.396 215.442 412.222 215.643 411.989 215.786C411.755 215.924 411.485 215.993 411.18 215.993C410.898 215.993 410.637 215.936 410.398 215.822C410.164 215.709 409.978 215.55 409.84 215.347C409.703 215.143 409.634 214.919 409.634 214.674C409.634 214.345 409.718 214.091 409.885 213.911C410.053 213.726 410.329 213.594 410.712 213.516C411.096 213.433 411.629 213.391 412.312 213.391H412.51V213.095C412.51 212.73 412.435 212.466 412.285 212.305C412.135 212.137 411.893 212.054 411.557 212.054C411.054 212.054 410.553 212.209 410.056 212.52L409.813 211.991C410.041 211.829 410.314 211.701 410.631 211.605C410.955 211.503 411.267 211.452 411.566 211.452ZM411.279 215.419C411.638 215.419 411.932 215.299 412.159 215.06C412.393 214.814 412.51 214.5 412.51 214.117V213.857H412.348C411.821 213.857 411.419 213.881 411.144 213.929C410.868 213.971 410.67 214.046 410.55 214.153C410.437 214.255 410.38 214.408 410.38 214.611C410.38 214.844 410.464 215.039 410.631 215.194C410.805 215.344 411.021 215.419 411.279 215.419Z" fill="#3A4166" fill-opacity="0.7"/>
<path d="M416.485 215.993C415.748 215.993 415.164 215.804 414.732 215.428L414.975 214.889C415.209 215.075 415.445 215.209 415.685 215.293C415.931 215.371 416.206 215.41 416.512 215.41C416.836 215.41 417.081 215.356 417.249 215.248C417.423 215.134 417.51 214.973 417.51 214.764C417.51 214.59 417.453 214.452 417.339 214.351C417.225 214.249 417.036 214.168 416.773 214.108L416.036 213.938C415.664 213.854 415.38 213.711 415.182 213.507C414.984 213.304 414.885 213.053 414.885 212.754C414.885 212.365 415.038 212.051 415.344 211.811C415.649 211.572 416.057 211.452 416.566 211.452C416.872 211.452 417.162 211.503 417.438 211.605C417.713 211.701 417.944 211.841 418.13 212.027L417.887 212.556C417.486 212.215 417.045 212.045 416.566 212.045C416.26 212.045 416.021 212.104 415.847 212.224C415.679 212.338 415.595 212.499 415.595 212.709C415.595 212.882 415.646 213.023 415.748 213.13C415.856 213.232 416.027 213.31 416.26 213.364L417.006 213.543C417.414 213.639 417.716 213.785 417.914 213.983C418.112 214.174 418.211 214.426 418.211 214.737C418.211 215.119 418.055 215.425 417.743 215.652C417.438 215.879 417.018 215.993 416.485 215.993Z" fill="#3A4166" fill-opacity="0.7"/>
<path d="M421.65 215.41C421.781 215.41 421.913 215.401 422.045 215.383L422.009 215.957C421.871 215.981 421.721 215.993 421.56 215.993C421.032 215.993 420.634 215.855 420.364 215.58C420.101 215.305 419.969 214.922 419.969 214.432V212.134H419.115V211.56H419.969V210.232H420.697V211.56H421.937V212.134H420.697V214.378C420.697 215.066 421.014 215.41 421.65 215.41Z" fill="#3A4166" fill-opacity="0.7"/>
<path d="M426.897 213.857H423.697C423.721 214.366 423.859 214.752 424.111 215.015C424.363 215.272 424.719 215.401 425.18 215.401C425.69 215.401 426.157 215.227 426.583 214.88L426.825 215.41C426.634 215.589 426.388 215.733 426.088 215.84C425.789 215.942 425.483 215.993 425.171 215.993C424.488 215.993 423.949 215.792 423.554 215.392C423.164 214.991 422.969 214.437 422.969 213.732C422.969 213.283 423.056 212.888 423.23 212.547C423.404 212.2 423.646 211.931 423.958 211.74C424.276 211.548 424.635 211.452 425.037 211.452C425.618 211.452 426.073 211.644 426.403 212.027C426.732 212.404 426.897 212.924 426.897 213.588V213.857ZM425.046 212.018C424.662 212.018 424.354 212.137 424.12 212.377C423.892 212.616 423.757 212.954 423.715 213.391H426.259C426.247 212.948 426.136 212.61 425.926 212.377C425.717 212.137 425.423 212.018 425.046 212.018Z" fill="#3A4166" fill-opacity="0.7"/>
<path d="M430.9 212.081L430.424 212.125C429.974 212.167 429.648 212.308 429.444 212.547C429.246 212.786 429.147 213.083 429.147 213.435V215.93H428.419V211.56H429.129V212.323C429.375 211.814 429.857 211.53 430.576 211.47L430.837 211.452L430.9 212.081Z" fill="#3A4166" fill-opacity="0.7"/>
<path d="M436.287 215.993C435.55 215.993 434.966 215.804 434.534 215.428L434.777 214.889C435.011 215.075 435.247 215.209 435.487 215.293C435.733 215.371 436.008 215.41 436.314 215.41C436.638 215.41 436.883 215.356 437.051 215.248C437.225 215.134 437.312 214.973 437.312 214.764C437.312 214.59 437.255 214.452 437.141 214.351C437.027 214.249 436.838 214.168 436.575 214.108L435.838 213.938C435.466 213.854 435.181 213.711 434.984 213.507C434.786 213.304 434.687 213.053 434.687 212.754C434.687 212.365 434.84 212.051 435.146 211.811C435.451 211.572 435.859 211.452 436.368 211.452C436.673 211.452 436.964 211.503 437.24 211.605C437.515 211.701 437.746 211.841 437.932 212.027L437.689 212.556C437.288 212.215 436.847 212.045 436.368 212.045C436.062 212.045 435.823 212.104 435.649 212.224C435.481 212.338 435.397 212.499 435.397 212.709C435.397 212.882 435.448 213.023 435.55 213.13C435.658 213.232 435.829 213.31 436.062 213.364L436.808 213.543C437.216 213.639 437.518 213.785 437.716 213.983C437.914 214.174 438.013 214.426 438.013 214.737C438.013 215.119 437.857 215.425 437.545 215.652C437.24 215.879 436.82 215.993 436.287 215.993Z" fill="#3A4166" fill-opacity="0.7"/>
<path d="M441.774 211.452C442.157 211.452 442.496 211.548 442.79 211.74C443.083 211.931 443.311 212.2 443.473 212.547C443.634 212.888 443.715 213.286 443.715 213.741C443.715 214.195 443.634 214.593 443.473 214.934C443.311 215.269 443.083 215.529 442.79 215.715C442.502 215.9 442.163 215.993 441.774 215.993C441.432 215.993 441.133 215.918 440.875 215.768C440.623 215.619 440.432 215.407 440.3 215.131V217.545H439.572V211.56H440.3V212.314C440.432 212.039 440.623 211.826 440.875 211.677C441.133 211.527 441.432 211.452 441.774 211.452ZM441.63 215.392C442.056 215.392 442.385 215.248 442.619 214.961C442.853 214.674 442.969 214.267 442.969 213.741C442.969 213.214 442.853 212.804 442.619 212.511C442.385 212.212 442.056 212.063 441.63 212.063C441.205 212.063 440.875 212.206 440.641 212.493C440.414 212.78 440.3 213.19 440.3 213.723C440.3 214.255 440.414 214.668 440.641 214.961C440.875 215.248 441.205 215.392 441.63 215.392Z" fill="#3A4166" fill-opacity="0.7"/>
<path d="M448.92 213.857H445.72C445.744 214.366 445.882 214.752 446.133 215.015C446.385 215.272 446.742 215.401 447.203 215.401C447.712 215.401 448.18 215.227 448.605 214.88L448.848 215.41C448.656 215.589 448.41 215.733 448.111 215.84C447.811 215.942 447.506 215.993 447.194 215.993C446.511 215.993 445.972 215.792 445.576 215.392C445.187 214.991 444.992 214.437 444.992 213.732C444.992 213.283 445.079 212.888 445.253 212.547C445.426 212.2 445.669 211.931 445.981 211.74C446.298 211.548 446.658 211.452 447.059 211.452C447.64 211.452 448.096 211.644 448.425 212.027C448.755 212.404 448.92 212.924 448.92 213.588V213.857ZM447.068 212.018C446.685 212.018 446.376 212.137 446.142 212.377C445.915 212.616 445.78 212.954 445.738 213.391H448.282C448.27 212.948 448.159 212.61 447.949 212.377C447.739 212.137 447.446 212.018 447.068 212.018Z" fill="#3A4166" fill-opacity="0.7"/>
<path d="M454.109 213.857H450.909C450.933 214.366 451.071 214.752 451.323 215.015C451.574 215.272 451.931 215.401 452.392 215.401C452.902 215.401 453.369 215.227 453.794 214.88L454.037 215.41C453.845 215.589 453.6 215.733 453.3 215.84C453 215.942 452.695 215.993 452.383 215.993C451.7 215.993 451.161 215.792 450.765 215.392C450.376 214.991 450.181 214.437 450.181 213.732C450.181 213.283 450.268 212.888 450.442 212.547C450.616 212.2 450.858 211.931 451.17 211.74C451.487 211.548 451.847 211.452 452.248 211.452C452.83 211.452 453.285 211.644 453.615 212.027C453.944 212.404 454.109 212.924 454.109 213.588V213.857ZM452.257 212.018C451.874 212.018 451.565 212.137 451.332 212.377C451.104 212.616 450.969 212.954 450.927 213.391H453.471C453.459 212.948 453.348 212.61 453.138 212.377C452.929 212.137 452.635 212.018 452.257 212.018Z" fill="#3A4166" fill-opacity="0.7"/>
<path d="M459.514 209.604V215.93H458.786V215.131C458.654 215.407 458.459 215.619 458.202 215.768C457.95 215.918 457.653 215.993 457.312 215.993C456.928 215.993 456.59 215.897 456.296 215.706C456.003 215.514 455.775 215.248 455.613 214.907C455.451 214.56 455.37 214.159 455.37 213.705C455.37 213.256 455.451 212.861 455.613 212.52C455.775 212.179 456.003 211.916 456.296 211.731C456.59 211.545 456.928 211.452 457.312 211.452C457.653 211.452 457.95 211.527 458.202 211.677C458.459 211.826 458.654 212.039 458.786 212.314V209.604H459.514ZM457.456 215.392C457.881 215.392 458.208 215.248 458.435 214.961C458.669 214.668 458.786 214.255 458.786 213.723C458.786 213.19 458.669 212.78 458.435 212.493C458.208 212.206 457.881 212.063 457.456 212.063C457.03 212.063 456.698 212.206 456.458 212.493C456.224 212.78 456.107 213.184 456.107 213.705C456.107 214.237 456.224 214.653 456.458 214.952C456.698 215.245 457.03 215.392 457.456 215.392Z" fill="#3A4166" fill-opacity="0.7"/>
<path d="M377.915 50.188V50.9776L376.738 50.9148L377.385 51.9019L376.702 52.2967L376.162 51.2378L375.623 52.2877L374.949 51.9019L375.596 50.9058L374.41 50.9687V50.188L375.596 50.2508L374.949 49.2548L375.623 48.86L376.162 49.9188L376.702 48.86L377.385 49.2638L376.738 50.2508L377.915 50.188Z" fill="#3A4166"/>
<path d="M382.204 55.3924C381.581 55.3924 381.035 55.2608 380.568 54.9976C380.106 54.7284 379.75 54.3485 379.498 53.858C379.253 53.3675 379.13 52.7962 379.13 52.1441C379.13 51.4921 379.253 50.9238 379.498 50.4392C379.75 49.9487 380.106 49.5718 380.568 49.3086C381.035 49.0394 381.581 48.9049 382.204 48.9049C382.629 48.9049 383.031 48.9707 383.408 49.1023C383.786 49.2339 384.103 49.4193 384.361 49.6586L383.974 50.5021C383.687 50.2747 383.402 50.1102 383.12 50.0085C382.839 49.9009 382.539 49.847 382.222 49.847C381.61 49.847 381.137 50.0444 380.802 50.4392C380.472 50.8341 380.307 51.4024 380.307 52.1441C380.307 52.8919 380.472 53.4632 380.802 53.858C381.137 54.2528 381.61 54.4502 382.222 54.4502C382.539 54.4502 382.839 54.3994 383.12 54.2977C383.402 54.19 383.687 54.0225 383.974 53.7952L384.361 54.6386C384.103 54.8779 383.786 55.0634 383.408 55.195C383.031 55.3266 382.629 55.3924 382.204 55.3924Z" fill="#3A4166"/>
<path d="M389.717 50.9238V55.3116H388.621V54.6386C388.483 54.8779 388.297 55.0634 388.064 55.195C387.83 55.3206 387.566 55.3834 387.273 55.3834C386.194 55.3834 385.655 54.7792 385.655 53.5708V50.9238H386.778V53.5798C386.778 53.8909 386.841 54.1212 386.967 54.2707C387.093 54.4203 387.291 54.4951 387.56 54.4951C387.872 54.4951 388.121 54.3934 388.306 54.19C388.498 53.9806 388.594 53.7054 388.594 53.3645V50.9238H389.717Z" fill="#3A4166"/>
<path d="M394.23 51.7493L393.574 51.8121C392.831 51.8899 392.46 52.2668 392.46 52.9427V55.3116H391.336V50.9238H392.406V51.6955C392.633 51.1691 393.104 50.8819 393.817 50.8341L394.158 50.8071L394.23 51.7493Z" fill="#3A4166"/>
<path d="M398.121 51.7493L397.464 51.8121C396.721 51.8899 396.35 52.2668 396.35 52.9427V55.3116H395.226V50.9238H396.296V51.6955C396.524 51.1691 396.994 50.8819 397.707 50.8341L398.049 50.8071L398.121 51.7493Z" fill="#3A4166"/>
<path d="M402.885 53.3196H399.892C399.928 53.7264 400.05 54.0285 400.26 54.2259C400.47 54.4233 400.769 54.522 401.159 54.522C401.644 54.522 402.088 54.3665 402.489 54.0554L402.813 54.8271C402.609 54.9946 402.351 55.1292 402.04 55.2309C401.734 55.3325 401.426 55.3834 401.114 55.3834C400.395 55.3834 399.826 55.18 399.406 54.7732C398.993 54.3665 398.786 53.8101 398.786 53.1042C398.786 52.6556 398.876 52.2578 399.056 51.9108C399.235 51.5639 399.487 51.2947 399.811 51.1032C400.14 50.9118 400.512 50.8161 400.925 50.8161C401.53 50.8161 402.007 51.0105 402.354 51.3994C402.708 51.7882 402.885 52.3236 402.885 53.0055V53.3196ZM400.952 51.6057C400.653 51.6057 400.41 51.7015 400.224 51.8929C400.044 52.0843 399.934 52.3595 399.892 52.7184H401.923C401.911 52.3535 401.821 52.0783 401.653 51.8929C401.486 51.7015 401.252 51.6057 400.952 51.6057Z" fill="#3A4166"/>
<path d="M406.806 50.8161C407.333 50.8161 407.725 50.9657 407.983 51.2648C408.241 51.5639 408.37 52.0155 408.37 52.6197V55.3116H407.246V52.6825C407.246 52.3415 407.18 52.0933 407.048 51.9377C406.923 51.7822 406.722 51.7044 406.446 51.7044C406.123 51.7044 405.862 51.8061 405.664 52.0095C405.472 52.2129 405.377 52.4851 405.377 52.8261V55.3116H404.253V50.9238H405.35V51.5788C405.499 51.3336 405.7 51.1451 405.952 51.0135C406.204 50.8819 406.488 50.8161 406.806 50.8161Z" fill="#3A4166"/>
<path d="M412.207 54.5399C412.339 54.5399 412.477 54.531 412.621 54.513L412.567 55.3475C412.387 55.3655 412.222 55.3744 412.072 55.3744C411.455 55.3744 411 55.2338 410.706 54.9527C410.413 54.6656 410.266 54.2408 410.266 53.6785V51.7673H409.421V50.9238H410.266V49.6137H411.389V50.9238H412.549V51.7673H411.389V53.6606C411.389 54.2468 411.662 54.5399 412.207 54.5399Z" fill="#3A4166"/>
<path d="M420.653 50.9238V55.3116H419.556V54.6386C419.418 54.8779 419.233 55.0634 418.999 55.195C418.765 55.3206 418.501 55.3834 418.208 55.3834C417.129 55.3834 416.59 54.7792 416.59 53.5708V50.9238H417.714V53.5798C417.714 53.8909 417.776 54.1212 417.902 54.2707C418.028 54.4203 418.226 54.4951 418.495 54.4951C418.807 54.4951 419.056 54.3934 419.241 54.19C419.433 53.9806 419.529 53.7054 419.529 53.3645V50.9238H420.653Z" fill="#3A4166"/>
<path d="M423.889 55.3834C423.5 55.3834 423.14 55.3355 422.811 55.2398C422.487 55.1441 422.211 55.0065 421.984 54.8271L422.298 54.0464C422.766 54.3874 423.302 54.5579 423.907 54.5579C424.165 54.5579 424.36 54.516 424.491 54.4323C424.629 54.3485 424.698 54.2289 424.698 54.0733C424.698 53.9417 424.65 53.84 424.554 53.7682C424.464 53.6965 424.3 53.6307 424.06 53.5708L423.341 53.4093C422.934 53.3196 422.631 53.173 422.433 52.9696C422.235 52.7663 422.137 52.503 422.137 52.18C422.137 51.9108 422.211 51.6745 422.361 51.4711C422.517 51.2618 422.73 51.1003 422.999 50.9866C423.275 50.8729 423.593 50.8161 423.952 50.8161C424.264 50.8161 424.563 50.864 424.851 50.9597C425.145 51.0554 425.402 51.19 425.624 51.3635L425.309 52.1262C424.854 51.7972 424.399 51.6327 423.943 51.6327C423.698 51.6327 423.506 51.6775 423.368 51.7673C423.23 51.857 423.161 51.9826 423.161 52.1441C423.161 52.2638 423.203 52.3625 423.287 52.4402C423.377 52.518 423.518 52.5778 423.709 52.6197L424.456 52.7902C424.893 52.8859 425.214 53.0384 425.417 53.2478C425.621 53.4512 425.723 53.7204 425.723 54.0554C425.723 54.4622 425.558 54.7852 425.228 55.0245C424.899 55.2638 424.453 55.3834 423.889 55.3834Z" fill="#3A4166"/>
<path d="M430.939 53.3196H427.946C427.982 53.7264 428.105 54.0285 428.315 54.2259C428.524 54.4233 428.824 54.522 429.213 54.522C429.699 54.522 430.142 54.3665 430.544 54.0554L430.867 54.8271C430.663 54.9946 430.406 55.1292 430.094 55.2309C429.789 55.3325 429.48 55.3834 429.168 55.3834C428.449 55.3834 427.88 55.18 427.461 54.7732C427.047 54.3665 426.841 53.8101 426.841 53.1042C426.841 52.6556 426.93 52.2578 427.11 51.9108C427.29 51.5639 427.542 51.2947 427.865 51.1032C428.195 50.9118 428.566 50.8161 428.98 50.8161C429.585 50.8161 430.061 51.0105 430.409 51.3994C430.762 51.7882 430.939 52.3236 430.939 53.0055V53.3196ZM429.007 51.6057C428.707 51.6057 428.464 51.7015 428.279 51.8929C428.099 52.0843 427.988 52.3595 427.946 52.7184H429.977C429.965 52.3535 429.875 52.0783 429.708 51.8929C429.54 51.7015 429.306 51.6057 429.007 51.6057Z" fill="#3A4166"/>
<path d="M435.202 51.7493L434.546 51.8121C433.803 51.8899 433.431 52.2668 433.431 52.9427V55.3116H432.308V50.9238H433.377V51.6955C433.605 51.1691 434.075 50.8819 434.788 50.8341L435.13 50.8071L435.202 51.7493Z" fill="#3A4166"/>
<path d="M442.062 54.3784H443.437V55.3116H439.528V54.3784H440.903V50.3046L439.815 50.9597L439.357 50.1162L441.235 48.9856H442.062V54.3784Z" fill="#3A4166"/>
<path d="M447.038 55.3924C446.289 55.3924 445.717 55.1172 445.321 54.5668C444.926 54.0105 444.728 53.2029 444.728 52.1441C444.728 51.0973 444.926 50.2987 445.321 49.7483C445.717 49.198 446.289 48.9228 447.038 48.9228C447.787 48.9228 448.359 49.198 448.755 49.7483C449.15 50.2987 449.348 51.0973 449.348 52.1441C449.348 53.197 449.15 54.0015 448.755 54.5579C448.359 55.1142 447.787 55.3924 447.038 55.3924ZM447.038 54.4861C447.446 54.4861 447.742 54.3006 447.928 53.9298C448.114 53.5529 448.207 52.9577 448.207 52.1441C448.207 51.3365 448.114 50.7503 447.928 50.3854C447.742 50.0145 447.446 49.8291 447.038 49.8291C446.631 49.8291 446.334 50.0145 446.148 50.3854C445.963 50.7503 445.87 51.3365 445.87 52.1441C445.87 52.9577 445.963 53.5529 446.148 53.9298C446.334 54.3006 446.631 54.4861 447.038 54.4861Z" fill="#3A4166"/>
<path d="M452.877 55.3924C452.128 55.3924 451.556 55.1172 451.16 54.5668C450.765 54.0105 450.567 53.2029 450.567 52.1441C450.567 51.0973 450.765 50.2987 451.16 49.7483C451.556 49.198 452.128 48.9228 452.877 48.9228C453.626 48.9228 454.198 49.198 454.594 49.7483C454.989 50.2987 455.187 51.0973 455.187 52.1441C455.187 53.197 454.989 54.0015 454.594 54.5579C454.198 55.1142 453.626 55.3924 452.877 55.3924ZM452.877 54.4861C453.284 54.4861 453.581 54.3006 453.767 53.9298C453.952 53.5529 454.045 52.9577 454.045 52.1441C454.045 51.3365 453.952 50.7503 453.767 50.3854C453.581 50.0145 453.284 49.8291 452.877 49.8291C452.469 49.8291 452.173 50.0145 451.987 50.3854C451.801 50.7503 451.708 51.3365 451.708 52.1441C451.708 52.9577 451.801 53.5529 451.987 53.9298C452.173 54.3006 452.469 54.4861 452.877 54.4861Z" fill="#3A4166"/>
<path d="M381.222 81.3333H379.811L376.872 78.3901V81.3333H375.713V75.0073H376.872V77.8338L379.694 75.0073H381.079L378.014 78.0491L381.222 81.3333Z" fill="#3A4166"/>
<path d="M385.809 79.3413H382.816C382.852 79.748 382.975 80.0501 383.184 80.2475C383.394 80.4449 383.694 80.5436 384.083 80.5436C384.568 80.5436 385.012 80.3881 385.413 80.077L385.737 80.8487C385.533 81.0162 385.276 81.1508 384.964 81.2525C384.658 81.3542 384.35 81.4051 384.038 81.4051C383.319 81.4051 382.75 81.2017 382.33 80.7949C381.917 80.3881 381.71 79.8318 381.71 79.1259C381.71 78.6773 381.8 78.2794 381.98 77.9325C382.16 77.5855 382.411 77.3163 382.735 77.1249C383.064 76.9335 383.436 76.8378 383.849 76.8378C384.455 76.8378 384.931 77.0322 385.279 77.421C385.632 77.8099 385.809 78.3452 385.809 79.0272V79.3413ZM383.876 77.6274C383.577 77.6274 383.334 77.7231 383.148 77.9145C382.969 78.106 382.858 78.3811 382.816 78.7401H384.847C384.835 78.3752 384.745 78.1 384.577 77.9145C384.41 77.7231 384.176 77.6274 383.876 77.6274Z" fill="#3A4166"/>
<path d="M391.033 79.3413H388.04C388.076 79.748 388.199 80.0501 388.409 80.2475C388.618 80.4449 388.918 80.5436 389.307 80.5436C389.793 80.5436 390.236 80.3881 390.638 80.077L390.961 80.8487C390.758 81.0162 390.5 81.1508 390.188 81.2525C389.883 81.3542 389.574 81.4051 389.263 81.4051C388.543 81.4051 387.974 81.2017 387.555 80.7949C387.141 80.3881 386.935 79.8318 386.935 79.1259C386.935 78.6773 387.024 78.2794 387.204 77.9325C387.384 77.5855 387.636 77.3163 387.959 77.1249C388.289 76.9335 388.66 76.8378 389.074 76.8378C389.679 76.8378 390.155 77.0322 390.503 77.421C390.856 77.8099 391.033 78.3452 391.033 79.0272V79.3413ZM389.101 77.6274C388.801 77.6274 388.558 77.7231 388.373 77.9145C388.193 78.106 388.082 78.3811 388.04 78.7401H390.071C390.059 78.3752 389.97 78.1 389.802 77.9145C389.634 77.7231 389.4 77.6274 389.101 77.6274Z" fill="#3A4166"/>
<path d="M394.927 76.8378C395.305 76.8378 395.64 76.9335 395.934 77.1249C396.234 77.3163 396.464 77.5885 396.626 77.9415C396.794 78.2884 396.878 78.6892 396.878 79.1439C396.878 79.5985 396.794 79.9963 396.626 80.3373C396.464 80.6782 396.237 80.9415 395.943 81.1269C395.649 81.3123 395.311 81.4051 394.927 81.4051C394.616 81.4051 394.337 81.3393 394.091 81.2077C393.846 81.076 393.657 80.8936 393.525 80.6603V82.9484H392.402V76.9455H393.507V77.6095C393.639 77.3642 393.828 77.1758 394.073 77.0442C394.325 76.9066 394.61 76.8378 394.927 76.8378ZM394.631 80.5347C394.984 80.5347 395.26 80.415 395.458 80.1758C395.655 79.9305 395.754 79.5865 395.754 79.1439C395.754 78.6892 395.655 78.3363 395.458 78.085C395.26 77.8338 394.984 77.7082 394.631 77.7082C394.271 77.7082 393.993 77.8308 393.795 78.0761C393.603 78.3213 393.507 78.6713 393.507 79.1259C393.507 79.5746 393.603 79.9215 393.795 80.1668C393.993 80.412 394.271 80.5347 394.631 80.5347Z" fill="#3A4166"/>
<path d="M403.026 76.8378C403.643 76.8378 404.102 76.9873 404.401 77.2864C404.701 77.5855 404.851 78.0461 404.851 78.6683V81.3333H403.781V80.6603C403.679 80.8936 403.518 81.076 403.296 81.2077C403.08 81.3393 402.828 81.4051 402.541 81.4051C402.247 81.4051 401.981 81.3452 401.741 81.2256C401.501 81.106 401.312 80.9415 401.175 80.7321C401.037 80.5227 400.968 80.2894 400.968 80.0322C400.968 79.7092 401.049 79.4549 401.211 79.2695C401.378 79.084 401.648 78.9494 402.02 78.8657C402.391 78.7819 402.903 78.7401 403.556 78.7401H403.781V78.5337C403.781 78.2346 403.715 78.0192 403.583 77.8876C403.458 77.756 403.245 77.6902 402.945 77.6902C402.712 77.6902 402.466 77.7321 402.208 77.8158C401.957 77.8936 401.708 78.0043 401.462 78.1478L401.148 77.3762C401.393 77.2206 401.69 77.092 402.037 76.9903C402.385 76.8886 402.715 76.8378 403.026 76.8378ZM402.766 80.5975C403.065 80.5975 403.308 80.4988 403.494 80.3014C403.685 80.098 403.781 79.8378 403.781 79.5207V79.3323H403.619C403.218 79.3323 402.906 79.3502 402.685 79.3861C402.463 79.422 402.304 79.4848 402.208 79.5746C402.112 79.6643 402.064 79.7869 402.064 79.9425C402.064 80.1339 402.13 80.2924 402.262 80.418C402.394 80.5377 402.562 80.5975 402.766 80.5975Z" fill="#3A4166"/>
<path d="M406.442 81.3333V75.0073H407.566V81.3333H406.442Z" fill="#3A4166"/>
<path d="M409.174 81.3333V76.9455H410.297V81.3333H409.174ZM409.111 74.9086H410.351V76.0123H409.111V74.9086Z" fill="#3A4166"/>
<path d="M414.988 76.9544H416.094L414.17 81.3333H413.19L411.285 76.9544H412.471L413.712 80.0501L414.988 76.9544Z" fill="#3A4166"/>
<path d="M420.871 79.3413H417.878C417.914 79.748 418.037 80.0501 418.247 80.2475C418.456 80.4449 418.756 80.5436 419.145 80.5436C419.631 80.5436 420.074 80.3881 420.476 80.077L420.799 80.8487C420.596 81.0162 420.338 81.1508 420.026 81.2525C419.721 81.3542 419.412 81.4051 419.101 81.4051C418.381 81.4051 417.812 81.2017 417.393 80.7949C416.979 80.3881 416.773 79.8318 416.773 79.1259C416.773 78.6773 416.863 78.2794 417.042 77.9325C417.222 77.5855 417.474 77.3163 417.797 77.1249C418.127 76.9335 418.498 76.8378 418.912 76.8378C419.517 76.8378 419.993 77.0322 420.341 77.421C420.694 77.8099 420.871 78.3452 420.871 79.0272V79.3413ZM418.939 77.6274C418.639 77.6274 418.396 77.7231 418.211 77.9145C418.031 78.106 417.92 78.3811 417.878 78.7401H419.909C419.897 78.3752 419.808 78.1 419.64 77.9145C419.472 77.7231 419.238 77.6274 418.939 77.6274Z" fill="#3A4166"/>
<path d="M425.03 76.9455H426.289V78.1837H425.03V76.9455ZM425.03 80.095H426.289V81.3333H425.03V80.095Z" fill="#3A4166"/>
<path fill-rule="evenodd" clip-rule="evenodd" d="M286.048 205.162H150.327V200.675H286.048V205.162Z" fill="#00BFA5"/>
<path fill-rule="evenodd" clip-rule="evenodd" d="M270.768 195.74H150.327V191.253H270.768V195.74Z" fill="#007AFF"/>
<path fill-rule="evenodd" clip-rule="evenodd" d="M225.827 175.551H150.327V171.064H225.827V175.551Z" fill="#00BFA5"/>
<path fill-rule="evenodd" clip-rule="evenodd" d="M219.536 166.129H150.327V161.642H219.536V166.129Z" fill="#007AFF"/>
<path fill-rule="evenodd" clip-rule="evenodd" d="M253.69 146.388H150.327V141.901H253.69V146.388Z" fill="#00BFA5"/>
<path fill-rule="evenodd" clip-rule="evenodd" d="M253.69 136.518H150.327V132.031H253.69V136.518Z" fill="#007AFF"/>
<path fill-rule="evenodd" clip-rule="evenodd" d="M162.461 118.123H150.327V113.636H162.461V118.123Z" fill="#00BFA5"/>
<path fill-rule="evenodd" clip-rule="evenodd" d="M160.214 108.701H150.327V104.215H160.214V108.701Z" fill="#007AFF"/>
<path fill-rule="evenodd" clip-rule="evenodd" d="M162.461 88.5119H150.327V84.0254H162.461V88.5119Z" fill="#00BFA5"/>
<path fill-rule="evenodd" clip-rule="evenodd" d="M160.214 79.0902H150.327V74.6036H160.214V79.0902Z" fill="#007AFF"/>
<path d="M377.726 92.1011H384.018V98.3822H377.726V92.1011Z" fill="#00BFA5"/>
<path d="M398.561 92.0569L396.071 95.3949V98.3829H395.334V95.3859L392.844 92.0569H393.698L395.711 94.7847L397.725 92.0569H398.561Z" fill="#3A4166" fill-opacity="0.7"/>
<path d="M402.51 96.3101H399.31C399.334 96.8186 399.472 97.2044 399.724 97.4676C399.975 97.7249 400.332 97.8535 400.793 97.8535C401.303 97.8535 401.77 97.68 402.195 97.333L402.438 97.8625C402.246 98.0419 402.001 98.1855 401.701 98.2932C401.402 98.3949 401.096 98.4457 400.784 98.4457C400.101 98.4457 399.562 98.2453 399.166 97.8445C398.777 97.4437 398.582 96.8904 398.582 96.1845C398.582 95.7358 398.669 95.341 398.843 95C399.017 94.6531 399.259 94.3839 399.571 94.1925C399.889 94.001 400.248 93.9053 400.65 93.9053C401.231 93.9053 401.686 94.0968 402.016 94.4796C402.345 94.8565 402.51 95.3769 402.51 96.0409V96.3101ZM400.658 94.4706C400.275 94.4706 399.966 94.5903 399.733 94.8296C399.505 95.0688 399.37 95.4068 399.328 95.8435H401.872C401.86 95.4008 401.749 95.0629 401.539 94.8296C401.33 94.5903 401.036 94.4706 400.658 94.4706Z" fill="#3A4166" fill-opacity="0.7"/>
<path d="M405.515 98.4457C404.778 98.4457 404.194 98.2573 403.762 97.8804L404.005 97.342C404.239 97.5275 404.476 97.6621 404.715 97.7458C404.961 97.8236 405.237 97.8625 405.542 97.8625C405.866 97.8625 406.111 97.8086 406.279 97.7009C406.453 97.5873 406.54 97.4258 406.54 97.2164C406.54 97.0429 406.483 96.9053 406.369 96.8036C406.255 96.7019 406.066 96.6212 405.803 96.5614L405.066 96.3909C404.694 96.3071 404.41 96.1636 404.212 95.9602C404.014 95.7568 403.915 95.5055 403.915 95.2064C403.915 94.8176 404.068 94.5035 404.374 94.2643C404.679 94.025 405.087 93.9053 405.596 93.9053C405.902 93.9053 406.192 93.9562 406.468 94.0579C406.744 94.1536 406.974 94.2942 407.16 94.4796L406.917 95.009C406.516 94.668 406.075 94.4976 405.596 94.4976C405.29 94.4976 405.051 94.5574 404.877 94.677C404.709 94.7907 404.625 94.9522 404.625 95.1616C404.625 95.335 404.676 95.4756 404.778 95.5833C404.886 95.685 405.057 95.7628 405.29 95.8166L406.036 95.9961C406.444 96.0918 406.747 96.2383 406.944 96.4357C407.142 96.6272 407.241 96.8784 407.241 97.1895C407.241 97.5723 407.085 97.8774 406.773 98.1047C406.468 98.332 406.048 98.4457 405.515 98.4457Z" fill="#3A4166" fill-opacity="0.7"/>
<path d="M398.174 109.105H398.866V115.431H398.3L394.48 110.343V115.431H393.788V109.105H394.354L398.174 114.192V109.105Z" fill="#3A4166" fill-opacity="0.7"/>
<path d="M402.589 115.493C402.176 115.493 401.81 115.401 401.493 115.215C401.181 115.03 400.938 114.767 400.765 114.426C400.597 114.079 400.513 113.678 400.513 113.223C400.513 112.769 400.597 112.371 400.765 112.03C400.938 111.683 401.181 111.417 401.493 111.231C401.81 111.046 402.176 110.953 402.589 110.953C403.003 110.953 403.368 111.046 403.686 111.231C404.003 111.417 404.246 111.683 404.414 112.03C404.588 112.371 404.674 112.769 404.674 113.223C404.674 113.678 404.588 114.079 404.414 114.426C404.246 114.767 404.003 115.03 403.686 115.215C403.368 115.401 403.003 115.493 402.589 115.493ZM402.589 114.892C403.021 114.892 403.35 114.752 403.578 114.471C403.812 114.183 403.928 113.768 403.928 113.223C403.928 112.691 403.812 112.281 403.578 111.994C403.344 111.701 403.015 111.554 402.589 111.554C402.164 111.554 401.834 111.701 401.601 111.994C401.367 112.281 401.25 112.691 401.25 113.223C401.25 113.762 401.364 114.174 401.592 114.462C401.825 114.749 402.158 114.892 402.589 114.892Z" fill="#3A4166" fill-opacity="0.7"/>
<path d="M377.726 109.149H384.017V115.43H377.726V109.149Z" fill="#007AFF"/>
<path d="M161.976 227.558H163.351V228.492H159.441V227.558H160.817V223.485L159.729 224.14L159.271 223.296L161.149 222.166H161.976V227.558Z" fill="#3A4166"/>
<path d="M186.702 227.559V228.492H182.442V227.639L184.599 225.324C184.851 225.049 185.033 224.798 185.147 224.57C185.267 224.337 185.327 224.107 185.327 223.88C185.327 223.592 185.243 223.377 185.075 223.234C184.914 223.084 184.674 223.009 184.356 223.009C183.787 223.009 183.215 223.228 182.64 223.664L182.253 222.821C182.505 222.599 182.825 222.423 183.215 222.291C183.61 222.154 184.006 222.085 184.401 222.085C185.036 222.085 185.54 222.24 185.911 222.552C186.283 222.863 186.469 223.281 186.469 223.808C186.469 224.173 186.391 224.517 186.235 224.84C186.079 225.157 185.815 225.513 185.444 225.907L183.889 227.559H186.702Z" fill="#3A4166"/>
<path d="M208.83 225.243C209.202 225.339 209.487 225.522 209.684 225.791C209.888 226.054 209.99 226.383 209.99 226.778C209.99 227.328 209.786 227.765 209.379 228.088C208.977 228.405 208.429 228.564 207.734 228.564C207.309 228.564 206.898 228.498 206.503 228.366C206.113 228.234 205.79 228.055 205.532 227.828L205.918 226.984C206.47 227.421 207.06 227.639 207.689 227.639C208.09 227.639 208.39 227.562 208.588 227.406C208.786 227.244 208.884 227.002 208.884 226.679C208.884 226.362 208.783 226.129 208.579 225.979C208.381 225.824 208.072 225.746 207.653 225.746H206.817V224.831H207.5C208.321 224.831 208.732 224.523 208.732 223.906C208.732 223.619 208.642 223.398 208.462 223.242C208.288 223.087 208.04 223.009 207.716 223.009C207.434 223.009 207.147 223.066 206.853 223.18C206.565 223.287 206.284 223.449 206.008 223.664L205.622 222.821C205.873 222.593 206.194 222.414 206.583 222.282C206.979 222.151 207.38 222.085 207.788 222.085C208.411 222.085 208.908 222.238 209.28 222.543C209.651 222.842 209.837 223.248 209.837 223.763C209.831 224.116 209.738 224.424 209.559 224.687C209.385 224.944 209.142 225.13 208.83 225.243Z" fill="#3A4166"/>
<path d="M233.674 226.356V227.253H232.784V228.492H231.651V227.253H228.901V226.401L231.849 222.166H232.784V226.356H233.674ZM229.98 226.356H231.651V223.942L229.98 226.356Z" fill="#3A4166"/>
<path d="M254.931 224.445C255.326 224.445 255.674 224.532 255.973 224.705C256.279 224.873 256.513 225.109 256.674 225.414C256.842 225.719 256.926 226.069 256.926 226.464C256.926 226.882 256.83 227.25 256.638 227.567C256.447 227.884 256.174 228.13 255.821 228.303C255.473 228.477 255.063 228.563 254.589 228.563C254.194 228.563 253.801 228.498 253.412 228.366C253.028 228.228 252.711 228.049 252.459 227.828L252.845 226.984C253.421 227.421 254.008 227.639 254.607 227.639C255.003 227.639 255.305 227.541 255.515 227.343C255.725 227.146 255.83 226.865 255.83 226.5C255.83 226.147 255.722 225.869 255.506 225.665C255.296 225.456 255.009 225.351 254.643 225.351C254.397 225.351 254.164 225.399 253.942 225.495C253.726 225.584 253.532 225.716 253.358 225.889H252.666V222.166H256.638V223.063H253.798V224.768C254.104 224.552 254.481 224.445 254.931 224.445Z" fill="#3A4166"/>
<path d="M278.353 224.436C278.725 224.436 279.057 224.523 279.351 224.696C279.645 224.864 279.872 225.103 280.034 225.414C280.202 225.719 280.286 226.069 280.286 226.464C280.286 226.871 280.196 227.235 280.016 227.559C279.836 227.876 279.585 228.124 279.261 228.303C278.938 228.483 278.572 228.572 278.165 228.572C277.362 228.572 276.742 228.303 276.304 227.765C275.873 227.221 275.657 226.446 275.657 225.441C275.657 224.747 275.759 224.149 275.963 223.646C276.172 223.138 276.472 222.752 276.861 222.489C277.251 222.22 277.712 222.085 278.246 222.085C278.623 222.085 278.992 222.151 279.351 222.282C279.711 222.408 280.022 222.587 280.286 222.821L279.899 223.664C279.342 223.228 278.806 223.009 278.29 223.009C277.829 223.009 277.47 223.207 277.212 223.601C276.954 223.99 276.819 224.556 276.807 225.297C276.945 225.028 277.152 224.819 277.428 224.669C277.703 224.514 278.012 224.436 278.353 224.436ZM278.111 227.657C278.44 227.657 278.701 227.553 278.893 227.343C279.09 227.134 279.189 226.853 279.189 226.5C279.189 226.153 279.09 225.875 278.893 225.665C278.695 225.456 278.431 225.351 278.102 225.351C277.772 225.351 277.503 225.459 277.293 225.674C277.089 225.884 276.987 226.159 276.987 226.5C276.987 226.847 277.089 227.128 277.293 227.343C277.503 227.553 277.775 227.657 278.111 227.657Z" fill="#3A4166"/>
<path d="M299.125 222.166H303.539V223.027L300.662 228.492H299.431L302.298 223.099H299.125V222.166Z" fill="#3A4166"/>
<path d="M325.91 225.243C326.281 225.345 326.566 225.531 326.764 225.8C326.967 226.069 327.069 226.398 327.069 226.787C327.069 227.343 326.86 227.78 326.44 228.097C326.021 228.408 325.439 228.564 324.696 228.564C323.953 228.564 323.372 228.408 322.953 228.097C322.533 227.78 322.324 227.343 322.324 226.787C322.324 226.398 322.425 226.069 322.629 225.8C322.833 225.525 323.121 225.339 323.492 225.243C323.174 225.124 322.926 224.938 322.746 224.687C322.566 224.43 322.476 224.131 322.476 223.79C322.476 223.263 322.674 222.848 323.07 222.543C323.465 222.238 324.007 222.085 324.696 222.085C325.386 222.085 325.928 222.238 326.323 222.543C326.719 222.848 326.917 223.263 326.917 223.79C326.917 224.137 326.827 224.439 326.647 224.696C326.467 224.953 326.221 225.136 325.91 225.243ZM324.696 222.991C323.947 222.991 323.573 223.296 323.573 223.906C323.573 224.212 323.666 224.445 323.852 224.606C324.043 224.762 324.325 224.84 324.696 224.84C325.068 224.84 325.347 224.762 325.532 224.606C325.724 224.445 325.82 224.212 325.82 223.906C325.82 223.296 325.445 222.991 324.696 222.991ZM324.696 227.657C325.553 227.657 325.982 227.337 325.982 226.697C325.982 226.057 325.553 225.737 324.696 225.737C323.84 225.737 323.411 226.057 323.411 226.697C323.411 227.337 323.84 227.657 324.696 227.657Z" fill="#3A4166"/>
<path d="M347.859 222.085C348.662 222.085 349.279 222.357 349.71 222.902C350.148 223.44 350.366 224.212 350.366 225.217C350.366 225.91 350.262 226.512 350.052 227.02C349.848 227.523 349.551 227.908 349.162 228.178C348.773 228.441 348.311 228.572 347.778 228.572C347.4 228.572 347.032 228.51 346.672 228.384C346.313 228.252 346.001 228.07 345.738 227.837L346.124 226.993C346.681 227.43 347.218 227.648 347.733 227.648C348.206 227.648 348.569 227.451 348.82 227.056C349.078 226.661 349.213 226.09 349.225 225.342C349.087 225.611 348.88 225.827 348.605 225.988C348.329 226.144 348.021 226.222 347.679 226.222C347.301 226.222 346.966 226.138 346.672 225.97C346.379 225.797 346.148 225.558 345.98 225.252C345.818 224.941 345.738 224.588 345.738 224.194C345.738 223.787 345.827 223.425 346.007 223.108C346.193 222.785 346.445 222.534 346.762 222.354C347.086 222.175 347.451 222.085 347.859 222.085ZM347.922 225.306C348.257 225.306 348.527 225.202 348.731 224.992C348.94 224.777 349.045 224.499 349.045 224.158C349.045 223.811 348.94 223.533 348.731 223.323C348.527 223.108 348.257 223 347.922 223C347.592 223 347.328 223.108 347.131 223.323C346.933 223.533 346.834 223.811 346.834 224.158C346.834 224.505 346.933 224.783 347.131 224.992C347.328 225.202 347.592 225.306 347.922 225.306Z" fill="#3A4166"/>
<path d="M372.297 227.558H373.673V228.492H369.763V227.558H371.138V223.485L370.05 224.14L369.592 223.296L371.47 222.166H372.297V227.558Z" fill="#3A4166"/>
<path d="M377.273 228.572C376.524 228.572 375.952 228.297 375.557 227.747C375.161 227.191 374.963 226.383 374.963 225.324C374.963 224.277 375.161 223.479 375.557 222.928C375.952 222.378 376.524 222.103 377.273 222.103C378.022 222.103 378.594 222.378 378.99 222.928C379.385 223.479 379.583 224.277 379.583 225.324C379.583 226.377 379.385 227.182 378.99 227.738C378.594 228.294 378.022 228.572 377.273 228.572ZM377.273 227.666C377.681 227.666 377.977 227.481 378.163 227.11C378.349 226.733 378.442 226.138 378.442 225.324C378.442 224.517 378.349 223.93 378.163 223.565C377.977 223.195 377.681 223.009 377.273 223.009C376.866 223.009 376.569 223.195 376.383 223.565C376.198 223.93 376.105 224.517 376.105 225.324C376.105 226.138 376.198 226.733 376.383 227.11C376.569 227.481 376.866 227.666 377.273 227.666Z" fill="#3A4166"/>
<defs>
<filter id="filter0_d" x="0" y="0.0355225" width="507.381" height="284.964" filterUnits="userSpaceOnUse" color-interpolation-filters="sRGB">
<feFlood flood-opacity="0" result="BackgroundImageFix"/>
<feColorMatrix in="SourceAlpha" type="matrix" values="0 0 0 0 0 0 0 0 0 0 0 0 0 0 0 0 0 0 127 0"/>
<feOffset dy="6"/>
<feGaussianBlur stdDeviation="10"/>
<feColorMatrix type="matrix" values="0 0 0 0 0.06739 0 0 0 0 0.101262 0 0 0 0 0.406114 0 0 0 0.3 0"/>
<feBlend mode="normal" in2="BackgroundImageFix" result="effect1_dropShadow"/>
<feBlend mode="normal" in="SourceGraphic" in2="effect1_dropShadow" result="shape"/>
</filter>
</defs>
</svg>
