<svg id="Layer_1" data-name="Layer 1" xmlns="http://www.w3.org/2000/svg" viewBox="0 0 92 92">
  <defs>
    <style>
      .cls-1 {
        fill: #007aff;
      }

      .cls-2 {
        fill: none;
        stroke: #fff;
        stroke-linecap: round;
        stroke-linejoin: round;
        stroke-width: 2px;
      }
    </style>
  </defs>
  <title>Icons &amp;amp; Illustrations</title>
  <circle class="cls-1" cx="46" cy="46" r="46"/>
  <g>
    <g>
      <path class="cls-2" d="M65.1,51.93a.22.22,0,0,1,0,.1c-.06.21-.13.42-.2.62s-.11.3-.18.46-.13.36-.21.54a17,17,0,0,1-.9,1.88.64.64,0,0,1-.08.14,20,20,0,0,1-35,0,.64.64,0,0,1-.08-.14,17,17,0,0,1-.9-1.88q-.12-.27-.21-.54c-.07-.16-.13-.31-.18-.46s-.14-.41-.2-.62a.22.22,0,0,1,0-.1Z"/>
      <path class="cls-2" d="M26.9,40.07a.22.22,0,0,1,0-.1c.06-.21.13-.42.2-.62s.11-.31.18-.46.13-.36.21-.54a17,17,0,0,1,.9-1.88.64.64,0,0,1,.08-.14,20,20,0,0,1,35,0,.64.64,0,0,1,.08.14,17,17,0,0,1,.9,1.88q.12.27.21.54c.07.15.12.3.18.46s.14.41.2.62a.22.22,0,0,1,0,.1Z"/>
      <path class="cls-2" d="M36.83,51.93H55.17a33.82,33.82,0,0,1-.77,3.74C52.77,61.83,49.62,66,46,66s-6.77-4.17-8.4-10.33A33.82,33.82,0,0,1,36.83,51.93Z"/>
      <path class="cls-2" d="M55.17,40.07H36.83a33.82,33.82,0,0,1,.77-3.74C39.23,30.17,42.38,26,46,26s6.77,4.17,8.4,10.33A33.82,33.82,0,0,1,55.17,40.07Z"/>
      <line class="cls-2" x1="46" y1="51.93" x2="46" y2="66"/>
      <line class="cls-2" x1="46" y1="26" x2="46" y2="40.07"/>
    </g>
    <g>
      <polyline class="cls-2" points="38.8 42.85 36.63 49.15 34.46 42.85 32.29 49.15 30.12 42.85"/>
      <polyline class="cls-2" points="50.34 42.85 48.17 49.15 46 42.85 43.83 49.15 41.66 42.85"/>
      <polyline class="cls-2" points="61.88 42.85 59.71 49.15 57.54 42.85 55.37 49.15 53.2 42.85"/>
    </g>
  </g>
</svg>
