<svg width="270" height="270" viewBox="0 0 270 270" fill="none" xmlns="http://www.w3.org/2000/svg">
<path d="M257.81 147.1L270 135L258.17 123.26L267.53 109.5L253.25 99.92L259.9 84.14L243.97 77.53L247.36 60.72L230.46 57.36V40.25H213.73L210.55 23.95L193.63 27.2L187.08 11.37L171.11 17.88L161.53 3.61L147.19 13.1L135 1L123.17 12.74L109.31 3.45L99.66 17.63L83.76 11.03L77.1 26.84L60.17 23.47L56.78 40.25H39.54V56.85L23.12 60.01L26.4 76.81L10.45 83.3L17.01 99.16L2.63 108.66L12.19 122.9L0 135L11.83 146.74L2.47 160.5L16.75 170.08L10.1 185.86L26.03 192.47L22.64 209.28L39.54 212.64V229.75H56.27L59.45 246.05L76.37 242.8L82.92 258.63L98.89 252.12L108.47 266.39L122.81 256.9L135 269L146.83 257.26L160.69 266.55L170.34 252.37L186.24 258.97L192.9 243.16L209.83 246.53L213.22 229.75H230.46V213.15L246.88 209.99L243.6 193.19L259.55 186.7L252.99 170.84L267.37 161.34L257.81 147.1Z" fill="#007AFF"/>
<path d="M129.43 121.46C130.977 123.6 131.775 126.19 131.7 128.83C131.76 130.768 131.334 132.69 130.461 134.421C129.588 136.152 128.295 137.637 126.7 138.74C123.367 141.153 118.847 142.357 113.14 142.35C109.847 142.362 106.57 141.897 103.41 140.97C100.72 140.244 98.2007 138.989 96 137.28L99.85 128.49C103.562 131.156 107.991 132.641 112.56 132.75C115.27 132.75 117.19 132.35 118.34 131.54C118.943 131.06 119.417 130.438 119.719 129.729C120.021 129.02 120.141 128.247 120.07 127.48C120.134 126.757 120.012 126.029 119.716 125.366C119.421 124.703 118.961 124.126 118.38 123.69C117.25 122.93 115.38 122.54 112.83 122.54H105.46V112.94H111.62C113.488 113.074 115.357 112.7 117.03 111.86C117.591 111.486 118.042 110.969 118.337 110.363C118.633 109.756 118.761 109.082 118.71 108.41C118.75 107.687 118.629 106.964 118.356 106.293C118.082 105.622 117.664 105.02 117.13 104.53C115.852 103.53 114.25 103.035 112.63 103.14C110.581 103.17 108.552 103.549 106.63 104.26C104.47 105.026 102.425 106.083 100.55 107.4L96.7 98.61C98.9269 96.9091 101.464 95.6591 104.17 94.93C107.228 94.0054 110.405 93.5371 113.6 93.54C116.642 93.4771 119.666 94.0281 122.49 95.16C124.854 96.1062 126.902 97.7007 128.4 99.76C129.812 101.78 130.548 104.196 130.5 106.66C130.559 108.992 129.884 111.283 128.57 113.21C127.23 115.103 125.326 116.524 123.13 117.27C125.642 117.918 127.861 119.394 129.43 121.46V121.46Z" fill="white"/>
<path d="M141.63 136.13C138.543 131.943 137 125.9 137 118C137 110.2 138.567 104.2 141.7 99.9998C144.833 95.7998 149.327 93.7065 155.18 93.7198C161.04 93.7198 165.537 95.8131 168.67 99.9998C171.803 104.186 173.37 110.186 173.37 118C173.37 125.926 171.813 131.986 168.7 136.18C165.587 140.373 161.08 142.47 155.18 142.47C149.26 142.436 144.743 140.323 141.63 136.13ZM159.82 129.51C160.773 127.163 161.247 123.31 161.24 117.95C161.24 112.67 160.77 108.88 159.82 106.55C158.87 104.22 157.32 103.07 155.15 103.07C152.98 103.07 151.44 104.23 150.49 106.55C149.54 108.87 149.07 112.67 149.07 117.95C149.07 123.23 149.54 127.16 150.49 129.51C151.44 131.86 153 133 155.15 133C157.3 133 158.87 131.85 159.82 129.51Z" fill="white"/>
<path d="M110.94 155.56H115.19V175.15H110.94V166.92H101.94V175.15H97.66V155.56H101.91V163.48H110.91L110.94 155.56Z" fill="white"/>
<path d="M136.8 175.15L134.94 170.81H125.83L124 175.15H119.64L128.64 155.56H132.11L141.11 175.15H136.8ZM127.25 167.54H133.53L130.39 160.2L127.25 167.54Z" fill="white"/>
<path d="M162.5 175.15H157.78L154.39 168.9C154.154 168.482 153.808 168.136 153.39 167.9C152.932 167.669 152.423 167.558 151.91 167.58H149.78V175.19H145.5V155.56H154.5C156.362 155.428 158.21 155.968 159.71 157.08C160.312 157.63 160.782 158.309 161.087 159.065C161.391 159.821 161.522 160.636 161.47 161.45C161.516 162.798 161.076 164.119 160.23 165.17C159.338 166.222 158.108 166.929 156.75 167.17C157.306 167.34 157.822 167.623 158.266 167.999C158.709 168.376 159.071 168.839 159.33 169.36L162.5 175.15ZM156.55 163.6C157.088 163.055 157.39 162.321 157.39 161.555C157.39 160.789 157.088 160.055 156.55 159.51C155.745 159.014 154.802 158.79 153.86 158.87H149.72V164.26H153.86C154.805 164.34 155.749 164.108 156.55 163.6V163.6Z" fill="white"/>
<path d="M167.75 175.15V155.56H172.08V175.15H167.75Z" fill="white"/>
<path d="M135 245.71C113.104 245.71 91.699 239.217 73.4928 227.052C55.2867 214.887 41.0967 197.597 32.7173 177.367C24.3379 157.137 22.1455 134.877 26.4173 113.402C30.689 91.926 41.2331 72.1994 56.7162 56.7163C72.1993 41.2332 91.9259 30.6891 113.402 26.4174C134.877 22.1456 157.137 24.338 177.367 32.7174C197.596 41.0968 214.887 55.2867 227.052 73.4929C239.217 91.6991 245.71 113.104 245.71 135C245.678 164.352 234.004 192.494 213.249 213.249C192.493 234.004 164.352 245.678 135 245.71V245.71ZM135 25.2901C113.301 25.2901 92.0901 31.7245 74.0484 43.7796C56.0067 55.8346 41.9449 72.969 33.6412 93.0159C25.3375 113.063 23.1649 135.122 27.398 156.403C31.6312 177.685 42.0801 197.234 57.4233 212.577C72.7665 227.92 92.315 238.369 113.597 242.602C134.878 246.835 156.937 244.663 176.984 236.359C197.031 228.055 214.165 213.993 226.221 195.952C238.276 177.91 244.71 156.699 244.71 135C244.678 105.913 233.109 78.0262 212.542 57.4585C191.974 36.8908 164.087 25.3219 135 25.2901V25.2901Z" fill="white"/>
<path d="M135 213.14C119.545 213.14 104.438 208.557 91.5877 199.971C78.7377 191.385 68.7223 179.181 62.808 164.903C56.8938 150.625 55.3464 134.913 58.3614 119.756C61.3765 104.598 68.8186 90.6746 79.7467 79.7466C90.6747 68.8185 104.598 61.3764 119.756 58.3613C134.913 55.3463 150.625 56.8937 164.903 62.808C179.181 68.7222 191.385 78.7376 199.971 91.5876C208.557 104.438 213.14 119.545 213.14 135C213.119 155.717 204.879 175.58 190.23 190.23C175.58 204.879 155.718 213.119 135 213.14V213.14ZM135 57.8599C119.743 57.8599 104.829 62.3841 92.1433 70.8603C79.4577 79.3366 69.5705 91.3842 63.7319 105.48C57.8934 119.575 56.3658 135.085 59.3422 150.049C62.3187 165.013 69.6655 178.758 80.4538 189.546C91.242 200.334 104.987 207.681 119.951 210.658C134.914 213.634 150.425 212.107 164.52 206.268C178.616 200.429 190.663 190.542 199.14 177.857C207.616 165.171 212.14 150.257 212.14 135C212.119 114.548 203.985 94.939 189.523 80.4771C175.061 66.0151 155.452 57.8811 135 57.8599V57.8599Z" fill="white"/>
<path d="M76.82 60.5603L84.25 68.2603C83.7785 69.4824 83.157 70.6413 82.4 71.7103C81.5616 72.9263 80.6035 74.0553 79.54 75.0803C78.0706 76.5607 76.2613 77.6593 74.27 78.2803C72.4706 78.8094 70.5532 78.7815 68.77 78.2003C66.8307 77.4849 65.078 76.3408 63.6426 74.8534C62.2071 73.3661 61.1261 71.5738 60.48 69.6103C59.9562 67.817 59.9841 65.9076 60.56 64.1303C61.211 62.2146 62.3359 60.4946 63.83 59.1303C64.8918 58.0877 66.1098 57.2172 67.44 56.5503C68.5857 55.979 69.8328 55.6392 71.11 55.5503L72.4 59.0003C71.2876 59.1483 70.2027 59.4583 69.18 59.9203C68.2304 60.3837 67.3624 60.9984 66.61 61.7403C63.57 64.6603 63.75 67.887 67.15 71.4203C68.9 73.2303 70.6 74.2103 72.25 74.3403C73.164 74.3645 74.0724 74.1892 74.9117 73.8265C75.7511 73.4638 76.5012 72.9225 77.11 72.2403C77.9753 71.4021 78.7313 70.4579 79.36 69.4303L76 66.0003L72.92 69.0003L70.6 66.5903L76.82 60.5603Z" fill="white"/>
<path d="M97.18 46.6004C98.0126 46.9482 98.7672 47.4592 99.3992 48.1032C100.031 48.7473 100.528 49.5113 100.86 50.3504L104.86 58.3504L100.86 60.3504L99.86 58.3504C99.9355 59.172 99.7349 59.9954 99.29 60.6904C98.8035 61.4473 98.1091 62.0479 97.29 62.4204C96.4256 62.8637 95.4712 63.1032 94.5 63.1204C93.6205 63.1142 92.7581 62.8762 92 62.4304C91.2427 61.9871 90.6337 61.3294 90.25 60.5404C89.7715 59.7118 89.625 58.7327 89.84 57.8004C90.1755 56.8053 90.8157 55.9411 91.67 55.3304C93.0506 54.2738 94.5428 53.3717 96.12 52.6404L96.84 52.2804L96.59 51.7804C96.4698 51.4568 96.2856 51.1608 96.0486 50.9099C95.8115 50.6591 95.5263 50.4586 95.21 50.3204C94.4899 50.1993 93.7503 50.3451 93.13 50.7304C92.3992 51.1226 91.7262 51.6139 91.13 52.1904C90.4408 52.8394 89.827 53.5639 89.3 54.3504L86.8 52.1004C87.4064 51.1219 88.1469 50.2333 89 49.4604C89.9005 48.639 90.91 47.9458 92 47.4004C94 46.3904 95.74 46.1204 97.18 46.6004ZM98.39 57.2704C98.6059 56.4311 98.4951 55.5411 98.08 54.7804L97.85 54.3004L97.37 54.5404C96.2664 55.0063 95.2515 55.6592 94.37 56.4704C94.1397 56.6928 93.9901 56.9856 93.9448 57.3025C93.8996 57.6194 93.9612 57.9424 94.12 58.2204C94.227 58.4574 94.383 58.6692 94.5778 58.8415C94.7725 59.0139 95.0017 59.143 95.25 59.2204C95.5026 59.3039 95.7696 59.3345 96.0345 59.3104C96.2995 59.2863 96.5566 59.208 96.79 59.0804C97.1741 58.916 97.5169 58.6684 97.7936 58.3554C98.0703 58.0423 98.274 57.6717 98.39 57.2704V57.2704Z" fill="white"/>
<path d="M121.65 41.8804L119.13 42.7104C118.132 42.938 117.255 43.5299 116.67 44.3703C116.27 45.1584 116.174 46.066 116.4 46.9203L118.08 54.6804L113.51 55.6804L110.28 40.8004L114.67 39.8004L115.22 42.3204C115.59 40.4404 116.94 39.1604 119.22 38.4904L120.54 38.1104L121.65 41.8804Z" fill="white"/>
<path d="M143.46 39.0902C144.023 39.7852 144.443 40.5849 144.695 41.4431C144.948 42.3013 145.027 43.201 144.93 44.0902L144.65 53.0902L140.22 53.0002L140.29 50.7402C139.969 51.5001 139.402 52.1303 138.68 52.5302C137.901 52.9678 137.012 53.1726 136.12 53.1202C135.152 53.1029 134.201 52.8634 133.34 52.4202C132.543 52.0097 131.875 51.3868 131.41 50.6202C130.95 49.8697 130.724 48.9996 130.76 48.1202C130.729 47.164 131.062 46.2317 131.69 45.5102C132.464 44.7979 133.438 44.3406 134.48 44.2002C136.192 43.9234 137.929 43.8328 139.66 43.9302H140.47V43.3702C140.514 43.0279 140.49 42.6803 140.399 42.3474C140.308 42.0144 140.152 41.7028 139.94 41.4302C139.369 40.9901 138.659 40.77 137.94 40.8102C137.099 40.802 136.26 40.9131 135.45 41.1402C134.535 41.3726 133.649 41.708 132.81 42.1402L131.66 39.0002C132.679 38.4335 133.773 38.0127 134.91 37.7502C136.071 37.4411 137.269 37.2963 138.47 37.3202C140.301 37.2342 142.093 37.8697 143.46 39.0902ZM139.46 49.0902C140.055 48.4577 140.381 47.6187 140.37 46.7502V46.2202H139.84C138.655 46.1186 137.462 46.2166 136.31 46.5102C136.002 46.6002 135.733 46.789 135.543 47.0475C135.353 47.3059 135.254 47.6196 135.26 47.9402C135.246 48.1992 135.285 48.4582 135.377 48.701C135.468 48.9437 135.609 49.1648 135.79 49.3502C135.976 49.5404 136.199 49.6914 136.444 49.7945C136.69 49.8975 136.954 49.9505 137.22 49.9502C137.638 49.9796 138.057 49.9148 138.446 49.7608C138.835 49.6068 139.185 49.3674 139.47 49.0602L139.46 49.0902Z" fill="white"/>
<path d="M170.73 45.4003C171.246 47.0403 171.172 48.8093 170.52 50.4003L167.71 59.1303L163.25 57.7003L166 49.1603C166.31 48.4224 166.363 47.6018 166.15 46.8303C166.016 46.5254 165.812 46.2562 165.555 46.0443C165.298 45.8324 164.995 45.6838 164.67 45.6103C164.264 45.4576 163.831 45.3929 163.398 45.4205C162.965 45.4481 162.543 45.5673 162.16 45.7703C161.371 46.2273 160.795 46.9791 160.56 47.8603L157.94 56.0003L153.48 54.5603L158.16 40.0703L162.49 41.4703L161.83 43.5403C162.565 42.9261 163.453 42.5249 164.4 42.3803C165.407 42.228 166.436 42.3206 167.4 42.6503C168.125 42.8307 168.801 43.1713 169.377 43.6472C169.953 44.1231 170.416 44.7222 170.73 45.4003V45.4003Z" fill="white"/>
<path d="M177.49 64.1404C176.74 63.3108 176.141 62.3564 175.72 61.3204L178.53 59.3204C178.926 60.2529 179.451 61.1248 180.09 61.9104C180.731 62.7195 181.493 63.4246 182.35 64.0004C182.82 64.3448 183.371 64.5618 183.95 64.6304C184.157 64.6481 184.365 64.6079 184.55 64.5143C184.736 64.4207 184.891 64.2774 185 64.1004C185.107 63.9592 185.174 63.7923 185.195 63.6166C185.216 63.4409 185.19 63.2628 185.12 63.1004C184.874 62.5975 184.535 62.1461 184.12 61.7704L182.36 60.0004C181.468 59.1726 180.824 58.1132 180.5 56.9404C180.413 56.4285 180.431 55.9043 180.551 55.3992C180.671 54.8942 180.892 54.4184 181.2 54.0004C181.683 53.2314 182.413 52.6495 183.27 52.3504C184.201 52.0494 185.195 52.0011 186.15 52.2104C187.295 52.4571 188.381 52.9223 189.35 53.5804C190.254 54.1765 191.06 54.9084 191.74 55.7504C192.398 56.5633 192.924 57.4744 193.3 58.4504L190.56 60.3604C189.973 58.7455 188.905 57.3494 187.5 56.3604C187.022 56.009 186.46 55.7915 185.87 55.7304C185.655 55.7099 185.438 55.7495 185.244 55.8449C185.049 55.9402 184.886 56.0875 184.77 56.2704C184.683 56.392 184.627 56.5328 184.606 56.6807C184.585 56.8287 184.6 56.9795 184.65 57.1204C184.846 57.5514 185.117 57.9441 185.45 58.2804L187.27 60.1904C188.217 61.0539 188.909 62.1608 189.27 63.3904C189.362 63.9125 189.346 64.4477 189.224 64.9635C189.102 65.4793 188.876 65.9648 188.56 66.3904C188.208 66.9686 187.715 67.448 187.128 67.7838C186.54 68.1196 185.877 68.3008 185.2 68.3104C183.496 68.2835 181.845 67.7201 180.48 66.7004C179.37 65.9895 178.363 65.1279 177.49 64.1404V64.1404Z" fill="white"/>
<path d="M192.25 75.7601L203.1 65.0901L206.38 68.4301L195.53 79.1001L192.25 75.7601ZM208.25 59.8501L211.77 63.4301L208.65 66.4901L205.13 62.9101L208.25 59.8501Z" fill="white"/>
<path d="M40.79 168.85C41.2422 167.851 41.8931 166.955 42.7028 166.216C43.5125 165.476 44.4642 164.91 45.5 164.55L55.77 160.13L57.41 163.92L47 168.42C45.8273 168.83 44.8454 169.655 44.24 170.74C43.861 171.794 43.8982 172.953 44.3442 173.98C44.7901 175.008 45.6112 175.827 46.64 176.27C47.8408 176.583 49.1149 176.444 50.22 175.88L60.66 171.39L62.29 175.18L52 179.6C51.0256 180.102 49.9595 180.401 48.8662 180.478C47.7729 180.555 46.6753 180.41 45.64 180.05C43.7123 178.977 42.1933 177.297 41.3197 175.272C40.4461 173.246 40.2669 170.988 40.81 168.85H40.79Z" fill="white"/>
<path d="M66.06 192.31C65.8939 193.078 65.5767 193.804 65.1268 194.448C64.677 195.092 64.1036 195.64 63.44 196.06L57.18 200.76L54.86 197.68L56.43 196.49C55.7408 196.689 55.0045 196.651 54.34 196.38C53.6196 196.083 52.9963 195.591 52.54 194.96C52.0349 194.288 51.6926 193.507 51.54 192.68C51.3839 191.916 51.4427 191.123 51.71 190.39C51.9538 189.674 52.4023 189.044 53 188.58C53.6374 188.047 54.4497 187.769 55.28 187.8C56.1963 187.934 57.0468 188.354 57.71 189C58.8269 190.017 59.8325 191.15 60.71 192.38L61.13 192.94L61.52 192.64C61.7729 192.484 61.9918 192.279 62.1636 192.037C62.3354 191.795 62.4566 191.52 62.52 191.23C62.5127 190.593 62.2706 189.98 61.84 189.51C61.4004 188.937 60.882 188.428 60.3 188C59.6384 187.506 58.9199 187.093 58.16 186.77L59.69 184.27C60.6285 184.655 61.51 185.166 62.31 185.79C63.1523 186.42 63.9028 187.163 64.54 188C65.5954 189.18 66.1417 190.729 66.06 192.31V192.31ZM57.06 195.04C57.8158 195.099 58.5649 194.862 59.15 194.38L59.52 194.1L59.24 193.73C58.6666 192.87 57.9494 192.116 57.12 191.5C56.8929 191.338 56.6184 191.256 56.3397 191.267C56.0611 191.278 55.7938 191.381 55.58 191.56C55.3956 191.691 55.2407 191.859 55.1253 192.054C55.0099 192.249 54.9366 192.465 54.91 192.69C54.8801 192.918 54.8966 193.15 54.9584 193.372C55.0203 193.593 55.1263 193.8 55.27 193.98C55.4827 194.275 55.7579 194.519 56.076 194.696C56.394 194.872 56.7471 194.976 57.11 195L57.06 195.04Z" fill="white"/>
<path d="M80.65 206.35C80.505 207.839 79.8475 209.232 78.79 210.29L73.57 216.34L70.48 213.68L75.57 207.77C76.0669 207.281 76.3871 206.641 76.48 205.95C76.475 205.659 76.4029 205.373 76.2693 205.115C76.1358 204.856 75.9444 204.632 75.71 204.46C75.4354 204.201 75.1087 204.004 74.7517 203.881C74.3947 203.759 74.0157 203.714 73.64 203.75C73.2487 203.798 72.8707 203.922 72.5275 204.116C72.1844 204.31 71.8828 204.569 71.64 204.88L66.8 210.5L63.71 207.84L72.37 197.84L75.37 200.43L74.14 201.86C74.9412 201.635 75.7888 201.635 76.59 201.86C77.4337 202.051 78.2192 202.442 78.88 203C79.4096 203.388 79.8442 203.891 80.1509 204.471C80.4575 205.051 80.6282 205.694 80.65 206.35V206.35Z" fill="white"/>
<path d="M99.8 216.47L94.29 226.93C93.9278 227.752 93.3914 228.485 92.7181 229.079C92.0447 229.673 91.2504 230.113 90.39 230.37C88.4681 230.713 86.4875 230.331 84.83 229.3C83.8077 228.758 82.8599 228.085 82.01 227.3C81.2254 226.602 80.551 225.79 80.01 224.89L82.27 222.89C83.2329 224.401 84.5603 225.646 86.13 226.51C88.13 227.55 89.61 227.137 90.57 225.27L91.25 223.98C90.5777 224.415 89.7904 224.638 88.99 224.62C88.1094 224.613 87.244 224.39 86.47 223.97C85.5074 223.482 84.6979 222.738 84.13 221.82C83.5964 220.912 83.3295 219.873 83.36 218.82C83.4137 217.616 83.7567 216.443 84.36 215.4C84.8953 214.327 85.6765 213.395 86.64 212.68C87.5004 212.052 88.5227 211.684 89.5859 211.618C90.6491 211.552 91.7089 211.793 92.64 212.31C93.418 212.702 94.0851 213.283 94.58 214C95.0465 214.653 95.3139 215.428 95.35 216.23L96.22 214.58L99.8 216.47ZM91.38 222C92.1914 221.571 92.8546 220.908 93.2828 220.096C93.711 219.284 93.8843 218.362 93.78 217.45C93.6828 217.044 93.4945 216.666 93.2294 216.344C92.9643 216.021 92.6294 215.764 92.25 215.59C91.8893 215.373 91.4843 215.241 91.0652 215.203C90.6461 215.165 90.2238 215.222 89.83 215.37C89.0135 215.787 88.3457 216.446 87.9179 217.257C87.4901 218.068 87.3232 218.991 87.44 219.9C87.5341 220.318 87.724 220.707 87.9948 221.039C88.2655 221.37 88.6097 221.634 89 221.81C89.3579 222.016 89.7571 222.14 90.1686 222.172C90.5802 222.205 90.9939 222.146 91.38 222V222Z" fill="white"/>
<path d="M133.41 237.22L128.41 236.64L121.2 227L120.2 235.72L116.02 235.24L118.2 216.33L122.38 216.81L121.38 225.13L130.28 217.73L135.22 218.3L125.38 226.3L133.41 237.22Z" fill="white"/>
<path d="M151.68 229.62L143.09 230.55C143.223 231.414 143.681 232.194 144.37 232.73C145.115 233.175 145.995 233.338 146.85 233.19C147.542 233.112 148.218 232.922 148.85 232.63C149.487 232.341 150.074 231.952 150.59 231.48L151.95 234.08C151.301 234.685 150.549 235.169 149.73 235.51C148.863 235.892 147.942 236.139 147 236.24C145.087 236.551 143.129 236.094 141.55 234.97C140.828 234.385 140.237 233.656 139.813 232.83C139.39 232.003 139.143 231.097 139.09 230.17C138.937 228.932 139.092 227.675 139.54 226.51C139.96 225.443 140.67 224.514 141.59 223.83C142.543 223.128 143.671 222.699 144.85 222.59C145.664 222.467 146.495 222.522 147.286 222.752C148.077 222.982 148.808 223.38 149.43 223.92C150.722 225.158 151.492 226.843 151.58 228.63L151.68 229.62ZM143.49 226.31C143.048 226.967 142.831 227.749 142.87 228.54L148.05 227.98C147.976 227.205 147.646 226.476 147.11 225.91C146.86 225.687 146.563 225.523 146.241 225.43C145.919 225.336 145.581 225.316 145.25 225.37C144.907 225.393 144.572 225.489 144.269 225.651C143.966 225.813 143.7 226.038 143.49 226.31V226.31Z" fill="white"/>
<path d="M175.8 215.25C177.018 216.108 177.913 217.352 178.34 218.78L181.21 226.24L177.4 227.71L174.58 220.37C174.391 219.723 174.015 219.145 173.5 218.71C173.268 218.574 173.005 218.499 172.736 218.49C172.467 218.481 172.201 218.54 171.96 218.66C171.634 218.768 171.337 218.951 171.094 219.194C170.851 219.437 170.668 219.734 170.56 220.06C170.358 220.844 170.433 221.674 170.77 222.41L173.39 229.24L169.59 230.71L166.77 223.37C166.581 222.72 166.201 222.141 165.68 221.71C165.45 221.573 165.189 221.497 164.921 221.489C164.654 221.48 164.389 221.539 164.15 221.66C163.822 221.767 163.523 221.951 163.28 222.196C163.037 222.441 162.855 222.741 162.75 223.07C162.549 223.854 162.623 224.683 162.96 225.42L165.58 232.25L161.78 233.71L157 221.33L160.71 219.91L161.35 221.57C161.496 220.825 161.841 220.133 162.35 219.57C162.899 218.961 163.584 218.491 164.35 218.2C165.104 217.8 165.97 217.662 166.811 217.807C167.653 217.951 168.423 218.371 169 219C169.129 218.144 169.492 217.341 170.05 216.68C170.619 215.986 171.36 215.455 172.2 215.14C172.769 214.883 173.389 214.759 174.013 214.778C174.637 214.797 175.248 214.959 175.8 215.25V215.25Z" fill="white"/>
<path d="M191.54 203.86C192.612 203.788 193.682 204.027 194.62 204.55C195.706 205.15 196.643 205.988 197.36 207C198.12 207.992 198.653 209.139 198.92 210.36C199.155 211.432 199.082 212.548 198.71 213.58C198.335 214.59 197.666 215.464 196.79 216.09C196.103 216.609 195.3 216.952 194.45 217.09C193.666 217.221 192.86 217.124 192.13 216.81L193.3 218.39L190.07 220.79L178.74 205.49L182.02 203.06L186.52 209.14C186.441 208.364 186.59 207.582 186.95 206.89C187.335 206.137 187.894 205.486 188.58 204.99C189.435 204.332 190.464 203.939 191.54 203.86V203.86ZM195.17 212.17C195.13 211.157 194.754 210.185 194.1 209.41C193.569 208.579 192.767 207.957 191.83 207.65C191.42 207.572 190.998 207.58 190.591 207.674C190.184 207.768 189.801 207.945 189.467 208.196C189.133 208.446 188.855 208.764 188.651 209.128C188.446 209.492 188.32 209.894 188.28 210.31C188.302 211.3 188.654 212.253 189.28 213.02C189.821 213.867 190.636 214.503 191.59 214.82C191.999 214.905 192.422 214.902 192.83 214.811C193.239 214.72 193.623 214.544 193.958 214.293C194.292 214.043 194.57 213.724 194.772 213.358C194.974 212.992 195.096 212.587 195.13 212.17H195.17Z" fill="white"/>
<path d="M205.51 190.38C206.295 190.379 207.072 190.537 207.796 190.842C208.519 191.148 209.173 191.596 209.72 192.16L215.63 197.3L213.09 200.21L211.61 198.92C211.939 199.557 212.052 200.283 211.93 200.99C211.785 201.735 211.439 202.427 210.93 202.99C210.388 203.635 209.703 204.145 208.93 204.48C208.216 204.789 207.431 204.896 206.66 204.79C205.915 204.68 205.22 204.353 204.66 203.85C204.006 203.34 203.564 202.606 203.42 201.79C203.361 200.877 203.588 199.968 204.07 199.19C204.826 197.878 205.725 196.654 206.75 195.54L207.21 195.01L206.84 194.69C206.635 194.469 206.388 194.293 206.113 194.171C205.838 194.048 205.541 193.984 205.24 193.98C204.62 194.11 204.071 194.466 203.7 194.98C203.235 195.545 202.848 196.171 202.55 196.84C202.21 197.592 201.959 198.38 201.8 199.19L199.03 198.19C199.228 197.191 199.565 196.225 200.03 195.32C200.463 194.364 201.025 193.473 201.7 192.67C202.63 191.447 203.994 190.627 205.51 190.38V190.38ZM210.04 198.56C209.941 197.807 209.554 197.123 208.96 196.65L208.61 196.35L208.31 196.7C207.59 197.441 207.001 198.3 206.57 199.24C206.46 199.495 206.438 199.78 206.506 200.05C206.575 200.319 206.731 200.558 206.95 200.73C207.115 200.883 207.311 201 207.525 201.073C207.739 201.145 207.965 201.171 208.19 201.15C208.42 201.134 208.645 201.071 208.85 200.965C209.055 200.858 209.235 200.71 209.38 200.53C209.618 200.265 209.797 199.952 209.904 199.612C210.011 199.272 210.044 198.913 210 198.56H210.04Z" fill="white"/>
<path d="M220.73 189.81L204.5 179.86L206.63 176.39L222.86 186.33L220.73 189.81Z" fill="white"/>
<path d="M209 170.73L210.8 166.73L214.27 168.3L212.47 172.3L209 170.73ZM226.94 178.73L214.86 173.28L216.54 169.56L228.59 175L226.94 178.73Z" fill="white"/>
<path d="M41.04 125.74L44.05 131.84L50.77 132.81L45.91 137.56L47.06 144.26L41.04 141.09L35.03 144.26L36.17 137.56L31.31 132.81L38.03 131.84L41.04 125.74Z" fill="white"/>
<path d="M228.81 125.74L231.82 131.84L238.55 132.81L233.68 137.56L234.83 144.26L228.81 141.09L222.8 144.26L223.95 137.56L219.08 132.81L225.81 131.84L228.81 125.74Z" fill="white"/>
</svg>
