<svg id="f048018e-c02e-45bc-b703-58d0b4579e13" data-name="Layer 1" xmlns="http://www.w3.org/2000/svg" width="92" height="92" viewBox="0 0 92 92">
  <defs>
    <style>
      .b3e2f04c-ced8-4c28-8693-a43dd6c8c138 {
        fill: #007aff;
      }

      .a93e6c1e-aeb4-4f46-bf4a-90679e9760f6, .b3c6d3fe-6191-416c-9d3d-8e52c49d6ce5 {
        fill: none;
        stroke: #fff;
        stroke-linejoin: round;
        stroke-width: 2px;
      }

      .a93e6c1e-aeb4-4f46-bf4a-90679e9760f6 {
        stroke-linecap: round;
      }
    </style>
  </defs>
  <title>icons</title>
  <circle class="b3e2f04c-ced8-4c28-8693-a43dd6c8c138" cx="46" cy="46" r="46"/>
  <g>
    <g>
      <circle class="b3c6d3fe-6191-416c-9d3d-8e52c49d6ce5" cx="46" cy="30.12" r="2.47"/>
      <path class="b3c6d3fe-6191-416c-9d3d-8e52c49d6ce5" d="M39.84,39.69a6.4,6.4,0,0,1-.06-.88,6.22,6.22,0,0,1,12.44,0,6.4,6.4,0,0,1-.06.88"/>
      <circle class="b3c6d3fe-6191-416c-9d3d-8e52c49d6ce5" cx="46" cy="31.59" r="10.22"/>
    </g>
    <g>
      <rect class="b3c6d3fe-6191-416c-9d3d-8e52c49d6ce5" x="26" y="46.37" width="40" height="13.55" rx="4"/>
      <line class="a93e6c1e-aeb4-4f46-bf4a-90679e9760f6" x1="32.45" y1="53.14" x2="51.16" y2="53.14"/>
      <circle class="a93e6c1e-aeb4-4f46-bf4a-90679e9760f6" cx="58.58" cy="53.14" r="1.68"/>
      <path class="a93e6c1e-aeb4-4f46-bf4a-90679e9760f6" d="M53.31,39.5h1.32a5.5,5.5,0,0,1,3.57,1.42l6.61,6.6"/>
      <path class="a93e6c1e-aeb4-4f46-bf4a-90679e9760f6" d="M27.16,47.56l6.57-6.64A4.9,4.9,0,0,1,37.3,39.5h2.48"/>
      <line class="b3c6d3fe-6191-416c-9d3d-8e52c49d6ce5" x1="46" y1="59.91" x2="46" y2="64.11"/>
      <line class="a93e6c1e-aeb4-4f46-bf4a-90679e9760f6" x1="56.55" y1="68.3" x2="50.07" y2="68.3"/>
      <line class="a93e6c1e-aeb4-4f46-bf4a-90679e9760f6" x1="41.77" y1="68.3" x2="35.3" y2="68.3"/>
      <path class="a93e6c1e-aeb4-4f46-bf4a-90679e9760f6" d="M48.29,66.37h-.16V65.7a1.6,1.6,0,0,0-1.6-1.59H45.47a1.6,1.6,0,0,0-1.6,1.59v.67h-.16a1.79,1.79,0,0,0-1.78,1.79v.68a1.79,1.79,0,0,0,1.78,1.79h4.58a1.79,1.79,0,0,0,1.78-1.79v-.68A1.79,1.79,0,0,0,48.29,66.37Z"/>
    </g>
  </g>
</svg>
