<svg width="15" height="15" viewBox="0 0 15 15" fill="none" xmlns="http://www.w3.org/2000/svg">
<path d="M13.9943 3.73528C13.3237 2.58626 12.4139 1.67652 11.2649 1.00586C10.1156 0.335242 8.86105 0 7.50021 0C6.1395 0 4.88456 0.335242 3.73551 1.00586C2.5864 1.67642 1.67665 2.58616 1.00597 3.73528C0.335242 4.88446 0 6.1394 0 7.5C0 8.86067 0.335345 10.1154 1.00586 11.2647C1.67652 12.4137 2.58627 13.3234 3.73538 13.9941C4.88456 14.6647 6.1394 15 7.50007 15C8.86074 15 10.1157 14.6647 11.2648 13.9941C12.4139 13.3237 13.3236 12.4137 13.9942 11.2647C14.6647 10.1155 14.9999 8.8606 14.9999 7.5C15 6.13926 14.6647 4.88428 13.9943 3.73528ZM8.75029 12.1875C8.75029 12.2786 8.72081 12.3535 8.66228 12.412C8.604 12.4705 8.52905 12.4998 8.438 12.4998H6.56279C6.47167 12.4998 6.39676 12.4705 6.33816 12.412C6.27954 12.3535 6.25026 12.2786 6.25026 12.1875V10.3123C6.25026 10.2212 6.2795 10.1463 6.33816 10.0878C6.39676 10.0294 6.47167 10.0001 6.56279 10.0001H8.438C8.52905 10.0001 8.604 10.0294 8.66228 10.0878C8.72081 10.1463 8.75029 10.2212 8.75029 10.3123V12.1875ZM11.1281 6.41595C11.0467 6.65685 10.9556 6.8539 10.8547 7.00683C10.7538 7.15983 10.6089 7.31611 10.42 7.47554C10.2315 7.63504 10.0817 7.74905 9.97072 7.81752C9.86024 7.88576 9.70057 7.97873 9.49247 8.09578C9.27756 8.21936 9.10031 8.38057 8.96041 8.57923C8.82041 8.77776 8.75043 8.93883 8.75043 9.06241C8.75043 9.15374 8.72094 9.22861 8.66238 9.28717C8.604 9.34569 8.52909 9.37494 8.438 9.37494H6.56289C6.47177 9.37494 6.39686 9.34569 6.33827 9.28717C6.2796 9.22861 6.25043 9.15374 6.25043 9.06241V8.71082C6.25043 8.27464 6.42121 7.86592 6.76306 7.48519C7.1049 7.10428 7.48088 6.82271 7.8911 6.6404C8.20339 6.49722 8.42483 6.35068 8.55502 6.20097C8.6854 6.05125 8.7505 5.85249 8.7505 5.60522C8.7505 5.39031 8.62832 5.19829 8.38413 5.0289C8.13994 4.85969 7.86182 4.77507 7.54922 4.77507C7.21059 4.77507 6.93073 4.85323 6.70932 5.00954C6.49441 5.16569 6.21455 5.46522 5.86945 5.90787C5.81086 5.98606 5.72945 6.02522 5.62527 6.02522C5.54714 6.02522 5.48527 6.00573 5.43974 5.96677L4.15076 4.99015C4.00105 4.87293 3.97502 4.73628 4.07257 4.58C4.90601 3.19326 6.11364 2.4999 7.69562 2.4999C8.26215 2.4999 8.81562 2.6334 9.35596 2.90037C9.89626 3.1672 10.3472 3.54486 10.7086 4.0332C11.0696 4.52137 11.2506 5.05206 11.2506 5.62499C11.2501 5.91142 11.2093 6.17497 11.1281 6.41595Z" fill="#3A4166"/>
</svg>
