<svg width="130" height="130" viewBox="0 0 130 130" fill="none" xmlns="http://www.w3.org/2000/svg">
<g filter="url(#filter0_d)">
<rect x="20" y="14" width="89.8809" height="89.8809" rx="8" fill="white"/>
</g>
<path d="M83.75 34H46.25C42.7984 34 40 36.7984 40 40.25V77.75C40 81.2016 42.7984 84 46.25 84H83.75C87.2016 84 90 81.2016 90 77.75V40.25C90 36.7984 87.2016 34 83.75 34ZM71.6656 43.1672C71.6656 42.2469 72.4125 41.5 73.3328 41.5C74.2531 41.5 75 42.2469 75 43.1672V65.4344C75 66.3547 74.2531 67.1016 73.3328 67.1016C72.4125 67.1016 71.6656 66.3547 71.6656 65.4344V43.1672ZM63.3328 42.3234C63.3328 41.4031 64.0797 40.6563 65 40.6563C65.9203 40.6563 66.6672 41.4031 66.6672 42.3234V66.4906C66.6672 67.4109 65.9203 68.1578 65 68.1578C64.0797 68.1578 63.3328 67.4109 63.3328 66.4906V42.3234ZM55 43.1672C55 42.2469 55.7469 41.5 56.6672 41.5C57.5875 41.5 58.3328 42.2469 58.3328 43.1672V65.4344C58.3328 66.3547 57.5875 67.1016 56.6672 67.1016C55.7469 67.1016 55 66.3547 55 65.4344V43.1672ZM46.6672 46.5C46.6672 45.5797 47.4125 44.8328 48.3328 44.8328C49.2531 44.8328 50 45.5797 50 46.5V61.4906C50 62.4109 49.2531 63.1578 48.3328 63.1578C47.4125 63.1578 46.6672 62.4109 46.6672 61.4906V46.5ZM82.7516 71.9219C82.4953 72.1437 76.3203 77.3234 65 77.3234C53.6797 77.3234 47.5078 72.1437 47.2484 71.9219C46.55 71.3234 46.4672 70.2719 47.0672 69.5719C47.6641 68.875 48.7141 68.7922 49.4125 69.3891C49.5094 69.4703 55.0234 73.9906 64.9984 73.9906C75.0984 73.9906 80.5266 69.4375 80.5797 69.3922C81.2766 68.7922 82.3312 68.8734 82.9281 69.5719C83.5297 70.2719 83.45 71.3234 82.7516 71.9219ZM83.3328 61.4906C83.3328 62.4109 82.5859 63.1578 81.6656 63.1578C80.7453 63.1578 80 62.4109 80 61.4906V46.5C80 45.5797 80.7453 44.8328 81.6656 44.8328C82.5859 44.8328 83.3328 45.5797 83.3328 46.5V61.4906Z" fill="#286EFA"/>
<defs>
<filter id="filter0_d" x="0" y="0" width="129.881" height="129.881" filterUnits="userSpaceOnUse" color-interpolation-filters="sRGB">
<feFlood flood-opacity="0" result="BackgroundImageFix"/>
<feColorMatrix in="SourceAlpha" type="matrix" values="0 0 0 0 0 0 0 0 0 0 0 0 0 0 0 0 0 0 127 0"/>
<feOffset dy="6"/>
<feGaussianBlur stdDeviation="10"/>
<feColorMatrix type="matrix" values="0 0 0 0 0.06739 0 0 0 0 0.101262 0 0 0 0 0.406114 0 0 0 0.3 0"/>
<feBlend mode="normal" in2="BackgroundImageFix" result="effect1_dropShadow"/>
<feBlend mode="normal" in="SourceGraphic" in2="effect1_dropShadow" result="shape"/>
</filter>
</defs>
</svg>
