<svg width="130" height="130" viewBox="0 0 130 130" fill="none" xmlns="http://www.w3.org/2000/svg">
<g filter="url(#filter0_d)">
<rect x="20" y="14" width="89.8809" height="89.7306" rx="8" fill="white"/>
</g>
<path d="M89.3163 57.9298L74.4826 43.0089L68.1635 51.0765L74.9769 57.9296C75.6042 58.5627 75.6042 59.5966 74.9769 60.2272L73.0053 62.2113C73.0053 62.2113 74.3342 64.2101 74.3953 64.3325C74.7018 64.95 74.7751 66.4009 73.9057 67.0653L58.4113 79.0297C58.408 83.0445 58.4035 91.3024 58.4089 91.306C58.4122 91.3069 89.3163 60.2272 89.3163 60.2272C89.9456 59.5943 89.9456 58.5628 89.3163 57.9298Z" fill="#3E8EDE"/>
<path d="M54.8617 59.8092C54.2343 59.1785 54.2343 58.1473 54.8617 57.5132L56.8341 55.529L55.4858 53.5787C54.842 52.6613 55.0439 51.359 55.9319 50.6771L71.4287 38.7102L71.4395 26.4428L71.4299 26.4362L71.422 26.425L40.5215 57.5132C39.8929 58.1473 39.8929 59.1785 40.5226 59.812L55.3549 74.7318L61.6752 66.6623L54.8617 59.8092Z" fill="#002D73"/>
<path d="M50.5557 84.105C50.2623 84.0852 49.9699 83.8917 49.842 83.6324C49.5881 83.113 49.96 82.6308 50.1389 82.3989L63.7132 65.0669C63.8378 64.9029 63.8507 64.5679 63.7397 64.4L56.1624 53.4363C55.5952 52.626 55.7707 51.4777 56.5554 50.8747L78.3906 34.013C78.7311 33.7455 78.9767 33.6371 79.2393 33.6371C79.5536 33.6371 79.857 33.8285 79.9967 34.1125C80.2497 34.6389 79.8768 35.1121 79.6978 35.3394L66.1191 52.6767C65.9977 52.8321 65.987 53.1802 66.0983 53.3413C66.0983 53.3413 73.4276 64.0332 73.6796 64.4002C74.0363 64.9188 74.0343 66.2908 73.2794 66.8664L51.447 83.7274C51.1405 83.9646 50.8973 84.1024 50.5557 84.105Z" stroke="#3E8EDE" stroke-miterlimit="10"/>
<path d="M72.8952 64.6009C73.0721 64.8701 73.2291 65.8822 72.7883 66.2199L50.9518 83.0799C50.7684 83.2236 50.651 83.2914 50.5983 83.287C50.523 83.2914 50.5774 83.1582 50.7783 82.8987L64.3516 65.5704C64.6941 65.1258 64.717 64.3932 64.4019 63.9347L56.826 52.9674C56.826 52.9674 72.7196 64.3324 72.8952 64.6009Z" fill="#FFCE00"/>
<path d="M72.8951 64.601L65.4336 53.8036C65.1174 53.3449 65.1434 52.6114 65.4831 52.1755L79.0573 34.8403C79.2592 34.5818 79.3114 34.4518 79.2392 34.4518C79.1848 34.4518 79.0649 34.5153 78.8849 34.659L57.0483 51.5205C56.6096 51.8589 56.507 52.5123 56.8258 52.9677L72.8951 64.601Z" fill="#FFDD6E"/>
<defs>
<filter id="filter0_d" x="0" y="0" width="129.881" height="129.731" filterUnits="userSpaceOnUse" color-interpolation-filters="sRGB">
<feFlood flood-opacity="0" result="BackgroundImageFix"/>
<feColorMatrix in="SourceAlpha" type="matrix" values="0 0 0 0 0 0 0 0 0 0 0 0 0 0 0 0 0 0 127 0"/>
<feOffset dy="6"/>
<feGaussianBlur stdDeviation="10"/>
<feColorMatrix type="matrix" values="0 0 0 0 0.06739 0 0 0 0 0.101262 0 0 0 0 0.406114 0 0 0 0.3 0"/>
<feBlend mode="normal" in2="BackgroundImageFix" result="effect1_dropShadow"/>
<feBlend mode="normal" in="SourceGraphic" in2="effect1_dropShadow" result="shape"/>
</filter>
</defs>
</svg>
