<svg width="50" height="23" viewBox="0 0 50 23" fill="none" xmlns="http://www.w3.org/2000/svg">
<path d="M22.54 1.17997C19.6825 0.00641608 16.4776 0.00641608 13.62 1.17997L13.07 1.42997C12.6231 1.63825 12.1919 1.87889 11.78 2.14997C11.0826 2.59921 10.4355 3.12222 9.85002 3.70997L1.85002 11.71C1.25597 12.3121 0.78696 13.0258 0.470016 13.81C-0.0131488 14.9862 -0.136125 16.2794 0.116681 17.5257C0.369487 18.7719 0.986688 19.915 1.89002 20.81C2.49326 21.4123 3.21059 21.8882 4.00002 22.21C4.7691 22.5203 5.59068 22.6799 6.42002 22.68H6.65002C5.88707 22.393 5.20898 21.9179 4.67864 21.2989C4.1483 20.6798 3.78289 19.9369 3.61632 19.1389C3.44975 18.341 3.48741 17.5139 3.72581 16.7344C3.9642 15.9549 4.39561 15.2482 4.98002 14.68H5.00002L11.67 7.99997L12.38 7.28997L12.62 7.05997L12.89 6.78997C13.0503 6.62306 13.2206 6.4661 13.4 6.31997C14.5942 5.27452 15.9437 4.42101 17.4 3.78997C19.818 2.76469 22.4629 2.39228 25.07 2.70997C24.2994 2.08844 23.4484 1.57379 22.54 1.17997ZM49.54 4.32997C49.052 3.14149 48.2202 2.12582 47.1512 1.41316C46.0822 0.700498 44.8248 0.323319 43.54 0.32997C42.7075 0.330295 41.8826 0.489827 41.11 0.79997H41.03C40.6815 0.938347 40.3467 1.10909 40.03 1.30997C39.6397 1.56019 39.2776 1.85188 38.95 2.17997L34.08 7.04997L33.37 7.74997L33.31 7.81997C32.8984 8.19932 32.3555 8.40404 31.7959 8.39098C31.2362 8.37792 30.7035 8.14811 30.31 7.74997L26.64 3.99997C25.5597 3.73752 24.4517 3.60657 23.34 3.60997C21.5891 3.62083 19.8558 3.96003 18.23 4.60997C20.1283 4.64558 21.9387 5.41633 23.28 6.75997L29.74 13.22C30.0211 13.504 30.356 13.7291 30.7252 13.8819C31.0944 14.0347 31.4904 14.1123 31.89 14.11C32.2913 14.1136 32.6892 14.0367 33.0602 13.8839C33.4312 13.731 33.7678 13.5052 34.05 13.22L35.9 11.37L36.7 10.57L41.7 5.56997L42 5.26997C42.0762 5.19183 42.1599 5.12148 42.25 5.05997C42.8432 4.53705 43.5558 4.16779 44.3251 3.98461C45.0944 3.80144 45.8969 3.80995 46.6621 4.0094C47.4273 4.20886 48.1319 4.59315 48.7139 5.12853C49.2959 5.66392 49.7375 6.33401 50 7.07997C50 6.96997 50 6.85997 50 6.74997C49.9999 5.92064 49.8403 5.09906 49.53 4.32997H49.54ZM45.44 4.92997C45.2219 4.92962 45.0043 4.94971 44.79 4.98997C44.8935 5.06142 44.9905 5.14172 45.08 5.22997C45.471 5.63141 45.6897 6.16962 45.6897 6.72997C45.6897 7.29032 45.471 7.82853 45.08 8.22997L37.14 16.2V16.25C37 16.39 36.85 16.53 36.71 16.65C35.1205 18.0681 33.2497 19.135 31.2199 19.7812C29.1901 20.4274 27.0468 20.6382 24.93 20.4C26.5379 21.5924 28.4251 22.3519 30.4107 22.6058C32.3963 22.8597 34.4138 22.5994 36.27 21.85L36.87 21.59C37.3126 21.3769 37.7432 21.1399 38.16 20.88C38.8858 20.4289 39.5569 19.8954 40.16 19.29L47.89 11.56L48.14 11.31C48.2284 11.2283 48.3118 11.1415 48.39 11.05C48.8355 10.4975 49.1155 9.83016 49.1976 9.12521C49.2798 8.42027 49.1607 7.70646 48.8543 7.06632C48.5478 6.42619 48.0664 5.88586 47.4658 5.50781C46.8651 5.12976 46.1697 4.92943 45.46 4.92997H45.44ZM31.82 18.4C29.8965 18.3868 28.0562 17.614 26.7 16.25L20.26 9.81997C19.9774 9.53034 19.64 9.29984 19.2675 9.14189C18.8949 8.98394 18.4947 8.9017 18.09 8.89997C17.6888 8.89632 17.2908 8.97321 16.9198 9.12608C16.5488 9.27895 16.2122 9.5047 15.93 9.78997L14 11.69L13.2 12.49L11.35 14.35L10.58 15.12L9.34002 16.39L8.20002 17.52L8.00002 17.75C7.77492 17.9749 7.5027 18.1471 7.20299 18.2541C6.90328 18.3611 6.58355 18.4002 6.26689 18.3686C5.95022 18.3371 5.64451 18.2356 5.37182 18.0715C5.09913 17.9075 4.86626 17.6849 4.69002 17.42C4.64148 17.6535 4.61801 17.8915 4.62002 18.13C4.62001 18.6246 4.7176 19.1143 4.90718 19.5712C5.09677 20.028 5.37462 20.443 5.72483 20.7922C6.07504 21.1415 6.49072 21.4183 6.94805 21.6066C7.40539 21.795 7.89541 21.8913 8.39002 21.89C8.52984 21.8998 8.67019 21.8998 8.81002 21.89C9.15434 21.8472 9.49095 21.7563 9.81002 21.62C10.2128 21.4503 10.582 21.2098 10.9 20.91H10.95V20.86L11.02 20.8L13.11 18.7L15.82 16L16.56 15.25C16.9615 14.859 17.4997 14.6403 18.06 14.6403C18.6204 14.6403 19.1586 14.859 19.56 15.25L23.37 19.06C26.174 19.7059 29.1085 19.4791 31.78 18.41L31.82 18.4Z" fill="white"/>
</svg>
