<svg xmlns="http://www.w3.org/2000/svg" width="62" height="62" viewBox="0 0 62 62">
    <g fill="none" fill-rule="evenodd">
        <circle cx="31" cy="31" r="31" fill="#4CAF50"/>
        <g fill-rule="nonzero">
            <path fill="#4CAF50" stroke="#FFF" stroke-width="2.667" d="M23.014 44.816l-8.063 2.578 2.617-7.804A17.213 17.213 0 0 1 14.667 30c0-9.56 7.77-17.333 17.329-17.333h.008c9.558 0 17.33 7.774 17.33 17.333 0 9.559-7.772 17.333-17.33 17.333-3.222 0-6.304-.878-8.99-2.517z"/>
            <path fill="#FAFAFA" d="M41.314 36.594c-.386 1.09-1.918 1.994-3.14 2.258-.836.178-1.928.32-5.604-1.204-4.702-1.948-7.73-6.726-7.966-7.036-.226-.31-1.9-2.53-1.9-4.826s1.166-3.414 1.636-3.894c.386-.394 1.024-.574 1.636-.574.198 0 .376.01.536.018.47.02.706.048 1.016.79.386.93 1.326 3.226 1.438 3.462.114.236.228.556.068.866-.15.32-.282.462-.518.734-.236.272-.46.48-.696.772-.216.254-.46.526-.188.996.272.46 1.212 1.994 2.596 3.226 1.786 1.59 3.234 2.098 3.752 2.314.386.16.846.122 1.128-.178.358-.386.8-1.026 1.25-1.656.32-.452.724-.508 1.148-.348.432.15 2.718 1.28 3.188 1.514.47.236.78.348.894.546.112.198.112 1.128-.274 2.22z"/>
        </g>
    </g>
</svg>
